<svg width="232" height="259" viewBox="0 0 232 259" fill="none" xmlns="http://www.w3.org/2000/svg">
<path d="M23.408 130.808C22.4053 130.808 21.4667 130.541 20.592 130.008C19.7387 129.475 18.9067 128.877 18.096 128.216C17.584 128.472 17.0507 128.675 16.496 128.824C15.9413 128.973 15.3653 129.048 14.768 129.048C13.9787 129.048 13.3387 128.931 12.848 128.696C12.3573 128.483 11.984 128.216 11.728 127.896C11.472 127.576 11.2907 127.256 11.184 126.936C11.0987 126.616 11.056 126.36 11.056 126.168C11.056 125.763 11.2373 125.357 11.6 124.952C11.984 124.525 12.6453 124.312 13.584 124.312C14.4587 124.312 15.3227 124.515 16.176 124.92C17.0293 125.304 17.904 125.763 18.8 126.296C19.7173 125.464 20.5387 124.419 21.264 123.16C21.9893 121.88 22.5973 120.515 23.088 119.064C23.5787 117.613 23.952 116.184 24.208 114.776C24.4853 113.368 24.624 112.109 24.624 111C24.624 109.251 24.2827 107.832 23.6 106.744C22.9173 105.656 21.8187 105.112 20.304 105.112C19.0667 105.112 17.9147 105.475 16.848 106.2C15.7813 106.904 14.8213 107.853 13.968 109.048C13.1147 110.221 12.3787 111.544 11.76 113.016C11.1413 114.488 10.672 116.013 10.352 117.592C10.032 119.171 9.87201 120.675 9.87201 122.104C9.87201 122.552 9.89334 123.032 9.93601 123.544C10 124.056 10.096 124.589 10.224 125.144C9.45601 125.144 8.85868 124.931 8.43201 124.504C8.02668 124.056 7.73868 123.491 7.56801 122.808C7.39734 122.104 7.31201 121.368 7.31201 120.6C7.31201 119 7.52534 117.411 7.95201 115.832C8.37868 114.232 8.97601 112.728 9.74401 111.32C10.5333 109.891 11.4613 108.621 12.528 107.512C13.616 106.403 14.8107 105.539 16.112 104.92C17.4347 104.28 18.8213 103.96 20.272 103.96C22.4267 103.96 24.112 104.664 25.328 106.072C26.5653 107.48 27.184 109.4 27.184 111.832C27.184 113.155 27.0027 114.531 26.64 115.96C26.2987 117.389 25.808 118.797 25.168 120.184C24.528 121.549 23.7707 122.819 22.896 123.992C22.0213 125.165 21.072 126.168 20.048 127C20.752 127.363 21.488 127.672 22.256 127.928C23.0453 128.184 23.856 128.312 24.688 128.312C25.2 128.312 25.5733 128.259 25.808 128.152C26.064 128.067 26.3947 127.971 26.8 127.864C26.5653 128.717 26.2453 129.357 25.84 129.784C25.4347 130.211 25.0187 130.488 24.592 130.616C24.1867 130.744 23.792 130.808 23.408 130.808ZM14.384 128.12C14.9173 128.12 15.4187 128.035 15.888 127.864C16.3573 127.715 16.7627 127.555 17.104 127.384C16.4853 126.851 15.856 126.392 15.216 126.008C14.576 125.603 13.9147 125.4 13.232 125.4C12.784 125.4 12.464 125.496 12.272 125.688C12.08 125.859 11.984 126.072 11.984 126.328C11.984 126.541 12.048 126.787 12.176 127.064C12.3253 127.341 12.5707 127.587 12.912 127.8C13.2747 128.013 13.7653 128.12 14.384 128.12ZM30.682 127.96C29.9567 127.96 29.3593 127.629 28.89 126.968C28.442 126.307 28.218 125.539 28.218 124.664C28.218 124.067 28.314 123.363 28.506 122.552C28.7193 121.741 28.9753 120.952 29.274 120.184C29.5727 119.395 29.882 118.744 30.202 118.232C30.5433 117.72 30.842 117.464 31.098 117.464C31.2473 117.464 31.4607 117.539 31.738 117.688C32.0367 117.837 32.2927 118.019 32.506 118.232C32.2713 118.573 31.9833 119.107 31.642 119.832C31.322 120.557 31.034 121.336 30.778 122.168C30.522 122.979 30.394 123.725 30.394 124.408C30.394 124.515 30.4047 124.739 30.426 125.08C30.4687 125.4 30.554 125.699 30.682 125.976C30.8313 126.253 31.0767 126.392 31.418 126.392C31.7807 126.392 32.1753 126.2 32.602 125.816C33.0287 125.411 33.4553 124.888 33.882 124.248C34.33 123.608 34.7567 122.915 35.162 122.168C35.5673 121.421 35.9407 120.707 36.282 120.024C36.6233 119.341 36.9007 118.765 37.114 118.296C37.2847 118.317 37.5087 118.371 37.786 118.456C38.0847 118.52 38.3407 118.616 38.554 118.744C38.7887 118.872 38.906 119.053 38.906 119.288C38.906 119.352 38.7993 119.619 38.586 120.088C38.394 120.557 38.1593 121.123 37.882 121.784C37.6047 122.445 37.3593 123.117 37.146 123.8C36.954 124.483 36.858 125.08 36.858 125.592C36.858 125.912 36.922 126.189 37.05 126.424C37.178 126.659 37.4233 126.776 37.786 126.776C38.234 126.776 38.7673 126.573 39.386 126.168C40.026 125.763 40.6767 125.176 41.338 124.408C41.9993 123.619 42.586 122.691 43.098 121.624L43.546 121.976C43.0767 123.128 42.4687 124.163 41.722 125.08C40.9967 125.976 40.2073 126.68 39.354 127.192C38.522 127.704 37.7113 127.96 36.922 127.96C36.3247 127.96 35.866 127.821 35.546 127.544C35.226 127.288 35.002 126.947 34.874 126.52C34.7673 126.093 34.714 125.656 34.714 125.208C34.714 125.059 34.714 124.899 34.714 124.728C34.7353 124.557 34.7567 124.397 34.778 124.248C34.4153 124.867 34.01 125.464 33.562 126.04C33.1353 126.595 32.6767 127.053 32.186 127.416C31.7167 127.779 31.2153 127.96 30.682 127.96ZM44.8078 127.928C43.9118 127.928 43.2398 127.651 42.7918 127.096C42.3438 126.563 42.1197 125.901 42.1197 125.112C42.1197 124.621 42.2051 124.003 42.3758 123.256C42.5464 122.509 42.7811 121.731 43.0798 120.92C43.3998 120.088 43.7624 119.309 44.1678 118.584C44.5731 117.859 44.9998 117.272 45.4478 116.824C45.9171 116.355 46.3758 116.12 46.8238 116.12C47.0584 116.12 47.2611 116.195 47.4318 116.344C47.6238 116.493 47.7198 116.707 47.7198 116.984C47.7198 117.261 47.5491 117.677 47.2078 118.232C46.8878 118.787 46.5038 119.437 46.0558 120.184C45.6078 120.909 45.2131 121.667 44.8718 122.456C44.5518 123.245 44.3918 124.003 44.3918 124.728C44.3918 125.432 44.5198 125.901 44.7758 126.136C45.0318 126.371 45.4051 126.488 45.8958 126.488C46.6211 126.488 47.3998 126.125 48.2318 125.4C49.0851 124.675 49.9704 123.405 50.8878 121.592L51.3038 122.04C50.5998 123.917 49.6611 125.368 48.4878 126.392C47.3358 127.416 46.1091 127.928 44.8078 127.928ZM48.6158 113.4C48.2318 113.4 47.8798 113.304 47.5598 113.112C47.2611 112.92 47.1118 112.632 47.1118 112.248C47.1118 111.736 47.3784 111.309 47.9118 110.968C48.4664 110.605 49.0318 110.424 49.6078 110.424C49.9704 110.424 50.2691 110.509 50.5038 110.68C50.7384 110.851 50.8558 111.139 50.8558 111.544C50.8558 111.992 50.6211 112.419 50.1518 112.824C49.6824 113.208 49.1704 113.4 48.6158 113.4ZM60.749 127.64C59.9597 127.64 59.3517 127.437 58.925 127.032C58.5197 126.627 58.317 126.115 58.317 125.496C58.317 125.048 58.3917 124.589 58.541 124.12C58.6903 123.629 58.8397 123.139 58.989 122.648C59.1383 122.136 59.213 121.645 59.213 121.176C59.213 120.664 59.0957 120.312 58.861 120.12C58.6263 119.928 58.349 119.832 58.029 119.832C57.389 119.832 56.7277 120.099 56.045 120.632C55.3837 121.165 54.733 121.837 54.093 122.648C53.453 123.437 52.8557 124.269 52.301 125.144C51.7463 126.019 51.2663 126.797 50.861 127.48C50.477 127.48 50.1143 127.416 49.773 127.288C49.4317 127.16 49.1437 126.936 48.909 126.616C48.9303 126.509 49.0583 126.189 49.293 125.656C49.5063 125.101 49.7517 124.44 50.029 123.672C50.3063 122.883 50.5517 122.072 50.765 121.24C50.9997 120.408 51.117 119.64 51.117 118.936C51.2663 118.787 51.4903 118.627 51.789 118.456C52.0877 118.285 52.397 118.2 52.717 118.2C53.3997 118.2 53.741 118.509 53.741 119.128C53.741 119.405 53.677 119.853 53.549 120.472C53.421 121.069 53.2503 121.731 53.037 122.456C53.5917 121.667 54.2103 120.909 54.893 120.184C55.5757 119.437 56.2903 118.829 57.037 118.36C57.7837 117.891 58.541 117.656 59.309 117.656C60.1837 117.656 60.8237 117.965 61.229 118.584C61.6557 119.181 61.869 119.853 61.869 120.6C61.869 121.24 61.7623 121.848 61.549 122.424C61.3357 122.979 61.1223 123.512 60.909 124.024C60.717 124.515 60.621 125.005 60.621 125.496C60.621 125.859 60.6957 126.125 60.845 126.296C61.0157 126.445 61.2183 126.52 61.453 126.52C61.965 126.52 62.4877 126.275 63.021 125.784C63.5757 125.272 64.0983 124.643 64.589 123.896C65.101 123.128 65.549 122.36 65.933 121.592L66.413 122.008C65.965 123.053 65.4637 124.003 64.909 124.856C64.3543 125.709 63.7357 126.392 63.053 126.904C62.3703 127.395 61.6023 127.64 60.749 127.64ZM68.0355 128.472C67.0968 128.472 66.3502 128.195 65.7955 127.64C65.2622 127.107 64.9955 126.285 64.9955 125.176C64.9955 124.28 65.1662 123.171 65.5075 121.848C65.8488 120.525 66.2755 119.16 66.7875 117.752C66.6168 117.709 66.4248 117.677 66.2115 117.656C66.0195 117.613 65.8382 117.549 65.6675 117.464V116.6C65.9448 116.643 66.1902 116.675 66.4035 116.696C66.6382 116.717 66.8835 116.739 67.1395 116.76C67.5875 115.629 68.0675 114.531 68.5795 113.464C69.1128 112.397 69.6355 111.448 70.1475 110.616C70.6595 109.784 71.1502 109.123 71.6195 108.632C72.0888 108.141 72.4942 107.896 72.8355 107.896C73.0488 107.896 73.2408 107.971 73.4115 108.12C73.5822 108.269 73.6675 108.483 73.6675 108.76C73.6675 109.165 73.4435 109.773 72.9955 110.584C72.5688 111.373 72.0248 112.312 71.3635 113.4C70.7235 114.467 70.1048 115.619 69.5075 116.856C69.6782 116.856 69.8488 116.856 70.0195 116.856C70.2115 116.856 70.3928 116.856 70.5635 116.856C71.4168 116.856 72.2275 116.845 72.9955 116.824C73.7635 116.781 74.5422 116.717 75.3315 116.632V117.528C74.1582 117.656 73.0808 117.752 72.0995 117.816C71.1395 117.88 70.2435 117.912 69.4115 117.912C69.3475 117.912 69.2728 117.912 69.1875 117.912C69.1235 117.912 69.0595 117.912 68.9955 117.912C68.5262 119 68.1208 120.109 67.7795 121.24C67.4595 122.371 67.2995 123.469 67.2995 124.536C67.2995 125.432 67.4382 126.072 67.7155 126.456C67.9928 126.819 68.4408 127 69.0595 127C70.1262 127 71.2142 126.509 72.3235 125.528C73.4328 124.547 74.3928 123.224 75.2035 121.56L75.6515 121.88C75.1182 123.117 74.4462 124.237 73.6355 125.24C72.8248 126.243 71.9395 127.032 70.9795 127.608C70.0408 128.184 69.0595 128.472 68.0355 128.472ZM76.071 128.504C75.3883 128.504 74.8017 128.269 74.311 127.8C73.799 127.352 73.543 126.669 73.543 125.752C73.543 124.984 73.7137 124.163 74.055 123.288C74.3963 122.413 74.8657 121.549 75.463 120.696C76.0603 119.843 76.743 119.064 77.511 118.36C78.279 117.656 79.0897 117.091 79.943 116.664C80.8177 116.237 81.6817 116.024 82.535 116.024C83.431 116.024 84.1777 116.259 84.775 116.728C85.3937 117.176 85.703 117.773 85.703 118.52C85.703 119.096 85.5217 119.501 85.159 119.736C84.7963 119.971 84.3483 120.045 83.815 119.96C83.8577 119.789 83.8897 119.608 83.911 119.416C83.9537 119.203 83.975 119 83.975 118.808C83.975 118.36 83.879 117.965 83.687 117.624C83.495 117.283 83.1217 117.112 82.567 117.112C81.9697 117.112 81.3617 117.315 80.743 117.72C80.1243 118.125 79.527 118.659 78.951 119.32C78.375 119.981 77.863 120.707 77.415 121.496C76.967 122.285 76.615 123.064 76.359 123.832C76.103 124.6 75.975 125.283 75.975 125.88C75.975 126.605 76.2417 126.968 76.775 126.968C77.2657 126.968 77.799 126.733 78.375 126.264C78.9723 125.795 79.5697 125.197 80.167 124.472C80.7857 123.747 81.3723 123.011 81.927 122.264C82.4817 121.496 82.9617 120.824 83.367 120.248C83.4523 120.141 83.527 120.088 83.591 120.088C83.6977 120.109 83.8683 120.163 84.103 120.248C84.3377 120.312 84.551 120.408 84.743 120.536C84.935 120.664 85.031 120.835 85.031 121.048C85.031 121.261 84.935 121.539 84.743 121.88C84.551 122.2 84.3377 122.563 84.103 122.968C83.8683 123.373 83.655 123.779 83.463 124.184C83.271 124.589 83.175 124.984 83.175 125.368C83.175 125.645 83.2497 125.923 83.399 126.2C83.5697 126.456 83.8363 126.584 84.199 126.584C84.7323 126.584 85.4577 126.2 86.375 125.432C87.3137 124.643 88.263 123.363 89.223 121.592L89.735 122.104C89.2443 123.256 88.6363 124.269 87.911 125.144C87.207 126.019 86.4603 126.701 85.671 127.192C84.8817 127.704 84.0923 127.96 83.303 127.96C82.4497 127.96 81.8203 127.693 81.415 127.16C81.0097 126.648 80.7857 126.083 80.743 125.464C80.743 125.4 80.743 125.336 80.743 125.272C80.7643 125.187 80.775 125.112 80.775 125.048C79.9003 126.136 79.1003 126.979 78.375 127.576C77.6497 128.195 76.8817 128.504 76.071 128.504ZM103.949 129.784C102.733 129.784 101.581 129.571 100.493 129.144C99.4045 128.717 98.5192 128.067 97.8365 127.192C97.1752 126.339 96.8445 125.261 96.8445 123.96C96.8445 122.829 97.0792 121.944 97.5485 121.304C98.0392 120.664 98.6472 120.216 99.3725 119.96C100.098 119.704 100.802 119.576 101.485 119.576C100.823 120.259 100.322 120.984 99.9805 121.752C99.6605 122.52 99.5005 123.256 99.5005 123.96C99.5005 124.707 99.6818 125.411 100.045 126.072C100.407 126.712 100.962 127.235 101.709 127.64C102.455 128.045 103.383 128.248 104.493 128.248C105.453 128.248 106.381 128.077 107.277 127.736C108.194 127.416 108.941 126.925 109.517 126.264C110.114 125.603 110.413 124.781 110.413 123.8C110.413 122.904 110.167 122.136 109.677 121.496C109.186 120.856 108.557 120.291 107.789 119.8C107.021 119.288 106.199 118.808 105.325 118.36C104.471 117.891 103.661 117.389 102.893 116.856C102.125 116.323 101.495 115.715 101.005 115.032C100.514 114.328 100.269 113.485 100.269 112.504C100.269 111.629 100.482 110.701 100.909 109.72C101.357 108.717 101.975 107.779 102.765 106.904C103.575 106.029 104.546 105.325 105.677 104.792C106.829 104.237 108.109 103.96 109.517 103.96C110.903 103.96 111.874 104.269 112.429 104.888C113.005 105.507 113.293 106.296 113.293 107.256C113.293 108.045 113.154 108.888 112.877 109.784C112.621 110.68 112.29 111.533 111.885 112.344C111.501 113.133 111.127 113.816 110.765 114.392C110.317 114.285 109.986 114.104 109.773 113.848C109.581 113.592 109.485 113.261 109.485 112.856C109.485 112.408 109.57 111.907 109.741 111.352C109.933 110.776 110.146 110.189 110.381 109.592C110.637 108.973 110.861 108.387 111.053 107.832C111.245 107.256 111.341 106.744 111.341 106.296C111.341 105.891 111.223 105.581 110.989 105.368C110.754 105.133 110.285 105.016 109.581 105.016C108.578 105.016 107.65 105.251 106.797 105.72C105.943 106.168 105.197 106.744 104.557 107.448C103.938 108.152 103.447 108.888 103.085 109.656C102.743 110.424 102.573 111.128 102.573 111.768C102.573 112.536 102.807 113.197 103.277 113.752C103.767 114.307 104.386 114.808 105.133 115.256C105.901 115.704 106.711 116.163 107.565 116.632C108.418 117.08 109.218 117.581 109.965 118.136C110.733 118.691 111.351 119.352 111.821 120.12C112.311 120.867 112.557 121.795 112.557 122.904C112.557 124.013 112.311 124.995 111.821 125.848C111.33 126.701 110.658 127.416 109.805 127.992C108.973 128.568 108.045 129.005 107.021 129.304C105.997 129.624 104.973 129.784 103.949 129.784ZM116.29 128.504C115.607 128.504 115.02 128.269 114.53 127.8C114.018 127.352 113.762 126.669 113.762 125.752C113.762 124.984 113.932 124.163 114.274 123.288C114.615 122.413 115.084 121.549 115.682 120.696C116.279 119.843 116.962 119.064 117.73 118.36C118.498 117.656 119.308 117.091 120.162 116.664C121.036 116.237 121.9 116.024 122.754 116.024C123.65 116.024 124.396 116.259 124.994 116.728C125.612 117.176 125.922 117.773 125.922 118.52C125.922 119.096 125.74 119.501 125.378 119.736C125.015 119.971 124.567 120.045 124.034 119.96C124.076 119.789 124.108 119.608 124.13 119.416C124.172 119.203 124.194 119 124.194 118.808C124.194 118.36 124.098 117.965 123.906 117.624C123.714 117.283 123.34 117.112 122.786 117.112C122.188 117.112 121.58 117.315 120.962 117.72C120.343 118.125 119.746 118.659 119.17 119.32C118.594 119.981 118.082 120.707 117.634 121.496C117.186 122.285 116.834 123.064 116.578 123.832C116.322 124.6 116.194 125.283 116.194 125.88C116.194 126.605 116.46 126.968 116.994 126.968C117.484 126.968 118.018 126.733 118.594 126.264C119.191 125.795 119.788 125.197 120.386 124.472C121.004 123.747 121.591 123.011 122.146 122.264C122.7 121.496 123.18 120.824 123.586 120.248C123.671 120.141 123.746 120.088 123.81 120.088C123.916 120.109 124.087 120.163 124.322 120.248C124.556 120.312 124.77 120.408 124.962 120.536C125.154 120.664 125.25 120.835 125.25 121.048C125.25 121.261 125.154 121.539 124.962 121.88C124.77 122.2 124.556 122.563 124.322 122.968C124.087 123.373 123.874 123.779 123.682 124.184C123.49 124.589 123.394 124.984 123.394 125.368C123.394 125.645 123.468 125.923 123.618 126.2C123.788 126.456 124.055 126.584 124.418 126.584C124.951 126.584 125.676 126.2 126.594 125.432C127.532 124.643 128.482 123.363 129.442 121.592L129.954 122.104C129.463 123.256 128.855 124.269 128.13 125.144C127.426 126.019 126.679 126.701 125.89 127.192C125.1 127.704 124.311 127.96 123.522 127.96C122.668 127.96 122.039 127.693 121.634 127.16C121.228 126.648 121.004 126.083 120.962 125.464C120.962 125.4 120.962 125.336 120.962 125.272C120.983 125.187 120.994 125.112 120.994 125.048C120.119 126.136 119.319 126.979 118.594 127.576C117.868 128.195 117.1 128.504 116.29 128.504ZM139.343 127.64C138.553 127.64 137.945 127.437 137.519 127.032C137.113 126.627 136.911 126.115 136.911 125.496C136.911 125.048 136.985 124.589 137.135 124.12C137.284 123.629 137.433 123.139 137.583 122.648C137.732 122.136 137.807 121.645 137.807 121.176C137.807 120.664 137.689 120.312 137.455 120.12C137.22 119.928 136.943 119.832 136.623 119.832C135.983 119.832 135.321 120.099 134.639 120.632C133.977 121.165 133.327 121.837 132.687 122.648C132.047 123.437 131.449 124.269 130.895 125.144C130.34 126.019 129.86 126.797 129.455 127.48C129.071 127.48 128.708 127.416 128.367 127.288C128.025 127.16 127.737 126.936 127.503 126.616C127.524 126.509 127.652 126.189 127.887 125.656C128.1 125.101 128.345 124.44 128.623 123.672C128.9 122.883 129.145 122.072 129.359 121.24C129.593 120.408 129.711 119.64 129.711 118.936C129.86 118.787 130.084 118.627 130.383 118.456C130.681 118.285 130.991 118.2 131.311 118.2C131.993 118.2 132.335 118.509 132.335 119.128C132.335 119.405 132.271 119.853 132.143 120.472C132.015 121.069 131.844 121.731 131.631 122.456C132.185 121.667 132.804 120.909 133.487 120.184C134.169 119.437 134.884 118.829 135.631 118.36C136.377 117.891 137.135 117.656 137.903 117.656C138.777 117.656 139.417 117.965 139.823 118.584C140.249 119.181 140.463 119.853 140.463 120.6C140.463 121.24 140.356 121.848 140.143 122.424C139.929 122.979 139.716 123.512 139.503 124.024C139.311 124.515 139.215 125.005 139.215 125.496C139.215 125.859 139.289 126.125 139.439 126.296C139.609 126.445 139.812 126.52 140.047 126.52C140.559 126.52 141.081 126.275 141.615 125.784C142.169 125.272 142.692 124.643 143.183 123.896C143.695 123.128 144.143 122.36 144.527 121.592L145.007 122.008C144.559 123.053 144.057 124.003 143.503 124.856C142.948 125.709 142.329 126.392 141.647 126.904C140.964 127.395 140.196 127.64 139.343 127.64ZM155.134 129.752C154.6 129.752 154.035 129.645 153.438 129.432C152.862 129.24 152.382 128.835 151.998 128.216C151.592 127.619 151.39 126.712 151.39 125.496C151.39 124.643 151.486 123.8 151.678 122.968C151.87 122.136 152.158 121.443 152.542 120.888C152.926 120.312 153.395 120.024 153.95 120.024C154.227 120.024 154.6 120.131 155.07 120.344C154.664 121.347 154.355 122.285 154.142 123.16C153.95 124.013 153.854 124.792 153.854 125.496C153.854 126.371 154.035 127.064 154.398 127.576C154.76 128.088 155.251 128.344 155.87 128.344C156.382 128.344 156.851 128.109 157.278 127.64C157.726 127.171 158.174 126.328 158.622 125.112C158.963 124.195 159.315 123.085 159.678 121.784C160.04 120.483 160.403 119.096 160.766 117.624C161.128 116.131 161.47 114.659 161.79 113.208C162.131 111.736 162.43 110.371 162.686 109.112C162.963 107.853 163.176 106.797 163.326 105.944C162.28 105.944 161.374 105.976 160.606 106.04C159.859 106.083 159.176 106.157 158.558 106.264C157.939 106.349 157.288 106.477 156.606 106.648C156.734 105.731 157.235 105.069 158.11 104.664C159.006 104.237 160.36 104.024 162.174 104.024C163.048 104.024 163.944 104.067 164.862 104.152C165.8 104.237 166.664 104.333 167.454 104.44C168.264 104.547 168.883 104.643 169.31 104.728C168.99 105.24 168.542 105.571 167.966 105.72C167.39 105.848 166.91 105.912 166.526 105.912C166.163 105.912 165.8 105.923 165.438 105.944C165.075 105.944 164.776 105.944 164.542 105.944C164.712 106.115 164.84 106.328 164.926 106.584C165.011 106.84 165.054 107.064 165.054 107.256C165.054 107.533 164.979 108.141 164.83 109.08C164.68 110.019 164.467 111.16 164.19 112.504C163.912 113.827 163.592 115.245 163.23 116.76C162.867 118.253 162.462 119.725 162.014 121.176C161.566 122.605 161.086 123.885 160.574 125.016C160.019 126.253 159.443 127.213 158.846 127.896C158.27 128.6 157.662 129.08 157.022 129.336C156.403 129.613 155.774 129.752 155.134 129.752ZM167.432 127.96C166.707 127.96 166.109 127.629 165.64 126.968C165.192 126.307 164.968 125.539 164.968 124.664C164.968 124.067 165.064 123.363 165.256 122.552C165.469 121.741 165.725 120.952 166.024 120.184C166.323 119.395 166.632 118.744 166.952 118.232C167.293 117.72 167.592 117.464 167.848 117.464C167.997 117.464 168.211 117.539 168.488 117.688C168.787 117.837 169.043 118.019 169.256 118.232C169.021 118.573 168.733 119.107 168.392 119.832C168.072 120.557 167.784 121.336 167.528 122.168C167.272 122.979 167.144 123.725 167.144 124.408C167.144 124.515 167.155 124.739 167.176 125.08C167.219 125.4 167.304 125.699 167.432 125.976C167.581 126.253 167.827 126.392 168.168 126.392C168.531 126.392 168.925 126.2 169.352 125.816C169.779 125.411 170.205 124.888 170.632 124.248C171.08 123.608 171.507 122.915 171.912 122.168C172.317 121.421 172.691 120.707 173.032 120.024C173.373 119.341 173.651 118.765 173.864 118.296C174.035 118.317 174.259 118.371 174.536 118.456C174.835 118.52 175.091 118.616 175.304 118.744C175.539 118.872 175.656 119.053 175.656 119.288C175.656 119.352 175.549 119.619 175.336 120.088C175.144 120.557 174.909 121.123 174.632 121.784C174.355 122.445 174.109 123.117 173.896 123.8C173.704 124.483 173.608 125.08 173.608 125.592C173.608 125.912 173.672 126.189 173.8 126.424C173.928 126.659 174.173 126.776 174.536 126.776C174.984 126.776 175.517 126.573 176.136 126.168C176.776 125.763 177.427 125.176 178.088 124.408C178.749 123.619 179.336 122.691 179.848 121.624L180.296 121.976C179.827 123.128 179.219 124.163 178.472 125.08C177.747 125.976 176.957 126.68 176.104 127.192C175.272 127.704 174.461 127.96 173.672 127.96C173.075 127.96 172.616 127.821 172.296 127.544C171.976 127.288 171.752 126.947 171.624 126.52C171.517 126.093 171.464 125.656 171.464 125.208C171.464 125.059 171.464 124.899 171.464 124.728C171.485 124.557 171.507 124.397 171.528 124.248C171.165 124.867 170.76 125.464 170.312 126.04C169.885 126.595 169.427 127.053 168.936 127.416C168.467 127.779 167.965 127.96 167.432 127.96ZM180.79 128.504C180.107 128.504 179.52 128.269 179.03 127.8C178.518 127.352 178.262 126.669 178.262 125.752C178.262 124.984 178.432 124.163 178.774 123.288C179.115 122.413 179.584 121.549 180.182 120.696C180.779 119.843 181.462 119.064 182.23 118.36C182.998 117.656 183.808 117.091 184.662 116.664C185.536 116.237 186.4 116.024 187.254 116.024C188.15 116.024 188.896 116.259 189.494 116.728C190.112 117.176 190.422 117.773 190.422 118.52C190.422 119.096 190.24 119.501 189.878 119.736C189.515 119.971 189.067 120.045 188.534 119.96C188.576 119.789 188.608 119.608 188.63 119.416C188.672 119.203 188.694 119 188.694 118.808C188.694 118.36 188.598 117.965 188.406 117.624C188.214 117.283 187.84 117.112 187.286 117.112C186.688 117.112 186.08 117.315 185.462 117.72C184.843 118.125 184.246 118.659 183.67 119.32C183.094 119.981 182.582 120.707 182.134 121.496C181.686 122.285 181.334 123.064 181.078 123.832C180.822 124.6 180.694 125.283 180.694 125.88C180.694 126.605 180.96 126.968 181.494 126.968C181.984 126.968 182.518 126.733 183.094 126.264C183.691 125.795 184.288 125.197 184.886 124.472C185.504 123.747 186.091 123.011 186.646 122.264C187.2 121.496 187.68 120.824 188.086 120.248C188.171 120.141 188.246 120.088 188.31 120.088C188.416 120.109 188.587 120.163 188.822 120.248C189.056 120.312 189.27 120.408 189.462 120.536C189.654 120.664 189.75 120.835 189.75 121.048C189.75 121.261 189.654 121.539 189.462 121.88C189.27 122.2 189.056 122.563 188.822 122.968C188.587 123.373 188.374 123.779 188.182 124.184C187.99 124.589 187.894 124.984 187.894 125.368C187.894 125.645 187.968 125.923 188.118 126.2C188.288 126.456 188.555 126.584 188.918 126.584C189.451 126.584 190.176 126.2 191.094 125.432C192.032 124.643 192.982 123.363 193.942 121.592L194.454 122.104C193.963 123.256 193.355 124.269 192.63 125.144C191.926 126.019 191.179 126.701 190.39 127.192C189.6 127.704 188.811 127.96 188.022 127.96C187.168 127.96 186.539 127.693 186.134 127.16C185.728 126.648 185.504 126.083 185.462 125.464C185.462 125.4 185.462 125.336 185.462 125.272C185.483 125.187 185.494 125.112 185.494 125.048C184.619 126.136 183.819 126.979 183.094 127.576C182.368 128.195 181.6 128.504 180.79 128.504ZM203.843 127.64C203.053 127.64 202.445 127.437 202.019 127.032C201.613 126.627 201.411 126.115 201.411 125.496C201.411 125.048 201.485 124.589 201.635 124.12C201.784 123.629 201.933 123.139 202.083 122.648C202.232 122.136 202.307 121.645 202.307 121.176C202.307 120.664 202.189 120.312 201.955 120.12C201.72 119.928 201.443 119.832 201.123 119.832C200.483 119.832 199.821 120.099 199.139 120.632C198.477 121.165 197.827 121.837 197.187 122.648C196.547 123.437 195.949 124.269 195.395 125.144C194.84 126.019 194.36 126.797 193.955 127.48C193.571 127.48 193.208 127.416 192.867 127.288C192.525 127.16 192.237 126.936 192.003 126.616C192.024 126.509 192.152 126.189 192.387 125.656C192.6 125.101 192.845 124.44 193.123 123.672C193.4 122.883 193.645 122.072 193.859 121.24C194.093 120.408 194.211 119.64 194.211 118.936C194.36 118.787 194.584 118.627 194.883 118.456C195.181 118.285 195.491 118.2 195.811 118.2C196.493 118.2 196.835 118.509 196.835 119.128C196.835 119.405 196.771 119.853 196.643 120.472C196.515 121.069 196.344 121.731 196.131 122.456C196.685 121.667 197.304 120.909 197.987 120.184C198.669 119.437 199.384 118.829 200.131 118.36C200.877 117.891 201.635 117.656 202.403 117.656C203.277 117.656 203.917 117.965 204.323 118.584C204.749 119.181 204.963 119.853 204.963 120.6C204.963 121.24 204.856 121.848 204.643 122.424C204.429 122.979 204.216 123.512 204.003 124.024C203.811 124.515 203.715 125.005 203.715 125.496C203.715 125.859 203.789 126.125 203.939 126.296C204.109 126.445 204.312 126.52 204.547 126.52C205.059 126.52 205.581 126.275 206.115 125.784C206.669 125.272 207.192 124.643 207.683 123.896C208.195 123.128 208.643 122.36 209.027 121.592L209.507 122.008C209.059 123.053 208.557 124.003 208.003 124.856C207.448 125.709 206.829 126.392 206.147 126.904C205.464 127.395 204.696 127.64 203.843 127.64ZM209.977 128.504C209.295 128.504 208.708 128.269 208.217 127.8C207.705 127.352 207.449 126.669 207.449 125.752C207.449 124.984 207.62 124.163 207.961 123.288C208.303 122.413 208.772 121.549 209.369 120.696C209.967 119.843 210.649 119.064 211.417 118.36C212.185 117.656 212.996 117.091 213.849 116.664C214.724 116.237 215.588 116.024 216.441 116.024C217.337 116.024 218.084 116.259 218.681 116.728C219.3 117.176 219.609 117.773 219.609 118.52C219.609 119.096 219.428 119.501 219.065 119.736C218.703 119.971 218.255 120.045 217.721 119.96C217.764 119.789 217.796 119.608 217.817 119.416C217.86 119.203 217.881 119 217.881 118.808C217.881 118.36 217.785 117.965 217.593 117.624C217.401 117.283 217.028 117.112 216.473 117.112C215.876 117.112 215.268 117.315 214.649 117.72C214.031 118.125 213.433 118.659 212.857 119.32C212.281 119.981 211.769 120.707 211.321 121.496C210.873 122.285 210.521 123.064 210.265 123.832C210.009 124.6 209.881 125.283 209.881 125.88C209.881 126.605 210.148 126.968 210.681 126.968C211.172 126.968 211.705 126.733 212.281 126.264C212.879 125.795 213.476 125.197 214.073 124.472C214.692 123.747 215.279 123.011 215.833 122.264C216.388 121.496 216.868 120.824 217.273 120.248C217.359 120.141 217.433 120.088 217.497 120.088C217.604 120.109 217.775 120.163 218.009 120.248C218.244 120.312 218.457 120.408 218.649 120.536C218.841 120.664 218.937 120.835 218.937 121.048C218.937 121.261 218.841 121.539 218.649 121.88C218.457 122.2 218.244 122.563 218.009 122.968C217.775 123.373 217.561 123.779 217.369 124.184C217.177 124.589 217.081 124.984 217.081 125.368C217.081 125.645 217.156 125.923 217.305 126.2C217.476 126.456 217.743 126.584 218.105 126.584C218.639 126.584 219.364 126.2 220.281 125.432C221.22 124.643 222.169 123.363 223.129 121.592L223.641 122.104C223.151 123.256 222.543 124.269 221.817 125.144C221.113 126.019 220.367 126.701 219.577 127.192C218.788 127.704 217.999 127.96 217.209 127.96C216.356 127.96 215.727 127.693 215.321 127.16C214.916 126.648 214.692 126.083 214.649 125.464C214.649 125.4 214.649 125.336 214.649 125.272C214.671 125.187 214.681 125.112 214.681 125.048C213.807 126.136 213.007 126.979 212.281 127.576C211.556 128.195 210.788 128.504 209.977 128.504Z" fill="black"/>
<path d="M42.4241 66.744C41.4428 66.744 40.2908 66.168 38.9681 65.016C37.6881 63.9067 36.3441 62.4347 34.9361 60.6C33.5281 58.7653 32.1201 56.76 30.7121 54.584C29.3468 52.408 28.0668 50.2107 26.8721 47.992C25.6774 45.7733 24.6748 43.7893 23.8641 42.04C22.6694 46.0507 21.5388 49.9973 20.4721 53.88C19.4054 57.7627 18.4028 61.3467 17.4641 64.632C16.2694 64.632 15.1601 64.2907 14.1361 63.608C13.1548 62.968 12.6641 62.1147 12.6641 61.048C12.6641 60.5787 12.7708 60.024 12.9841 59.384C13.1974 58.744 13.3894 58.1253 13.5601 57.528C14.7548 53.944 15.8428 50.68 16.8241 47.736C17.8054 44.792 18.7441 42.04 19.6401 39.48C20.5788 36.92 21.5174 34.3813 22.4561 31.864C23.4374 29.3467 24.4828 26.744 25.5921 24.056C26.7441 21.368 28.0241 18.424 29.4321 15.224C27.7254 15.5227 26.2321 15.9707 24.9521 16.568C23.6721 17.1227 22.6268 17.6347 21.8161 18.104C21.0054 18.5307 20.4508 18.744 20.1521 18.744C19.9814 18.744 19.6828 18.616 19.2561 18.36C18.8721 18.104 18.5308 17.8053 18.2321 17.464C17.9334 17.08 17.7841 16.76 17.7841 16.504C18.9788 16.0347 20.3441 15.5227 21.8801 14.968C23.4588 14.4133 25.1868 13.944 27.0641 13.56C28.9414 13.1333 30.8828 12.92 32.8881 12.92C34.7654 12.92 36.7068 13.1547 38.7121 13.624C40.7174 14.0507 42.5521 14.7547 44.2161 15.736C45.9228 16.7173 47.2881 17.9973 48.3121 19.576C49.3788 21.112 49.9121 22.968 49.9121 25.144C49.9121 27.192 49.4428 28.9627 48.5041 30.456C47.6081 31.9067 46.3921 33.144 44.8561 34.168C43.3628 35.192 41.6988 36.024 39.8641 36.664C38.0721 37.304 36.2588 37.7947 34.4241 38.136C32.6321 38.4773 30.9681 38.712 29.4321 38.84C27.9388 38.968 26.7228 39.0533 25.7841 39.096C27.1494 41.272 28.4721 43.4053 29.7521 45.496C31.0321 47.5867 32.3974 49.656 33.8481 51.704C35.3414 53.752 37.0694 55.8213 39.0321 57.912C41.0374 59.96 43.4054 62.0507 46.1361 64.184C45.9228 64.9093 45.4108 65.5067 44.6001 65.976C43.7894 66.488 43.0641 66.744 42.4241 66.744ZM25.1441 37.432C27.5334 37.304 29.8801 36.9413 32.1841 36.344C34.5308 35.704 36.6641 34.8507 38.5841 33.784C40.5041 32.6747 42.0401 31.3093 43.1921 29.688C44.3441 28.024 44.9201 26.0827 44.9201 23.864C44.9201 21.6027 44.3654 19.832 43.2561 18.552C42.1468 17.2293 40.7174 16.2907 38.9681 15.736C37.2188 15.1813 35.3841 14.8827 33.4641 14.84C32.0134 17.7413 30.5841 21.176 29.1761 25.144C27.8108 29.0693 26.4668 33.1653 25.1441 37.432ZM55.1696 61.816C52.4816 61.816 50.4336 61.0907 49.0256 59.64C47.6176 58.1893 46.9136 56.376 46.9136 54.2C46.9136 52.28 47.3829 50.2747 48.3216 48.184C49.3029 46.0507 50.6043 44.0667 52.2256 42.232C53.8469 40.3547 55.6176 38.84 57.5376 37.688C59.5003 36.4933 61.4416 35.896 63.3616 35.896C64.4283 35.896 65.4309 36.1733 66.3696 36.728C67.3509 37.2827 67.8416 38.392 67.8416 40.056C67.8416 41.6773 67.3509 43.2133 66.3696 44.664C65.4309 46.072 64.1723 47.3307 62.5936 48.44C61.0576 49.5493 59.3296 50.4667 57.4096 51.192C55.5323 51.8747 53.6549 52.3013 51.7776 52.472C51.7349 52.728 51.6923 52.984 51.6496 53.24C51.6069 53.496 51.5856 53.8373 51.5856 54.264C51.5856 54.6053 51.6283 55.0747 51.7136 55.672C51.8416 56.2267 52.0549 56.8027 52.3536 57.4C52.6949 57.9547 53.2069 58.424 53.8896 58.808C54.5723 59.192 55.4683 59.384 56.5776 59.384C58.3696 59.384 60.1616 58.872 61.9536 57.848C63.7883 56.824 65.4949 55.48 67.0736 53.816C68.6523 52.1093 69.9749 50.232 71.0416 48.184L72.1296 49.08C70.9776 51.64 69.5056 53.88 67.7136 55.8C65.9216 57.6773 63.9376 59.1493 61.7616 60.216C59.6283 61.2827 57.4309 61.816 55.1696 61.816ZM52.3536 50.488C53.4629 50.2747 54.7216 49.848 56.1296 49.208C57.5376 48.5253 58.8816 47.6933 60.1616 46.712C61.4416 45.688 62.4869 44.5787 63.2976 43.384C64.1509 42.1893 64.5776 40.9733 64.5776 39.736C64.5776 39.2667 64.4923 38.9253 64.3216 38.712C64.1509 38.4987 63.8523 38.392 63.4256 38.392C62.4016 38.392 61.3349 38.776 60.2256 39.544C59.1589 40.2693 58.0923 41.2293 57.0256 42.424C56.0016 43.576 55.0843 44.8773 54.2736 46.328C53.4629 47.736 52.8229 49.1227 52.3536 50.488ZM76.6666 62.584C74.4906 62.584 72.6986 61.88 71.2906 60.472C69.8826 59.1067 69.1786 57.016 69.1786 54.2C69.1786 52.1093 69.5839 50.0613 70.3946 48.056C71.2479 46.0507 72.3573 44.2373 73.7226 42.616C75.0879 40.9947 76.6026 39.7147 78.2666 38.776C79.9306 37.8373 81.6159 37.368 83.3226 37.368C85.1146 37.368 86.3733 37.8373 87.0986 38.776C87.8666 39.7147 88.2506 40.76 88.2506 41.912C88.2506 43.1493 87.9519 44.3013 87.3546 45.368C86.7999 46.4347 86.0319 46.968 85.0506 46.968C84.2399 46.968 83.5786 46.584 83.0666 45.816C83.5786 45.5173 84.0693 44.92 84.5386 44.024C85.0079 43.128 85.2426 42.104 85.2426 40.952C85.2426 40.5253 85.1573 40.2053 84.9866 39.992C84.8159 39.7787 84.4746 39.672 83.9626 39.672C82.8533 39.672 81.7013 40.1627 80.5066 41.144C79.3546 42.1253 78.2666 43.4053 77.2426 44.984C76.2186 46.52 75.3866 48.1413 74.7466 49.848C74.1066 51.5547 73.7866 53.1547 73.7866 54.648C73.7866 55.8853 74.1066 57.016 74.7466 58.04C75.3866 59.064 76.6026 59.576 78.3946 59.576C80.0586 59.576 81.7439 59.1067 83.4506 58.168C85.1999 57.2293 86.8426 55.9067 88.3786 54.2C89.9146 52.4933 91.1306 50.4667 92.0266 48.12L93.1786 49.144C92.1546 51.704 90.7466 54.008 88.9546 56.056C87.2053 58.0613 85.2426 59.64 83.0666 60.792C80.9333 61.9867 78.7999 62.584 76.6666 62.584ZM97.9196 61.816C95.2316 61.816 93.1836 61.0907 91.7756 59.64C90.3676 58.1893 89.6636 56.376 89.6636 54.2C89.6636 52.28 90.1329 50.2747 91.0716 48.184C92.0529 46.0507 93.3543 44.0667 94.9756 42.232C96.5969 40.3547 98.3676 38.84 100.288 37.688C102.25 36.4933 104.192 35.896 106.112 35.896C107.178 35.896 108.181 36.1733 109.12 36.728C110.101 37.2827 110.592 38.392 110.592 40.056C110.592 41.6773 110.101 43.2133 109.12 44.664C108.181 46.072 106.922 47.3307 105.344 48.44C103.808 49.5493 102.08 50.4667 100.16 51.192C98.2823 51.8747 96.4049 52.3013 94.5276 52.472C94.4849 52.728 94.4423 52.984 94.3996 53.24C94.3569 53.496 94.3356 53.8373 94.3356 54.264C94.3356 54.6053 94.3783 55.0747 94.4636 55.672C94.5916 56.2267 94.8049 56.8027 95.1036 57.4C95.4449 57.9547 95.9569 58.424 96.6396 58.808C97.3223 59.192 98.2183 59.384 99.3276 59.384C101.12 59.384 102.912 58.872 104.704 57.848C106.538 56.824 108.245 55.48 109.824 53.816C111.402 52.1093 112.725 50.232 113.792 48.184L114.88 49.08C113.728 51.64 112.256 53.88 110.464 55.8C108.672 57.6773 106.688 59.1493 104.512 60.216C102.378 61.2827 100.181 61.816 97.9196 61.816ZM95.1036 50.488C96.2129 50.2747 97.4716 49.848 98.8796 49.208C100.288 48.5253 101.632 47.6933 102.912 46.712C104.192 45.688 105.237 44.5787 106.048 43.384C106.901 42.1893 107.328 40.9733 107.328 39.736C107.328 39.2667 107.242 38.9253 107.072 38.712C106.901 38.4987 106.602 38.392 106.176 38.392C105.152 38.392 104.085 38.776 102.976 39.544C101.909 40.2693 100.842 41.2293 99.7756 42.424C98.7516 43.576 97.8343 44.8773 97.0236 46.328C96.2129 47.736 95.5729 49.1227 95.1036 50.488ZM108.6 76.92C108.259 76.92 107.918 76.792 107.576 76.536C107.192 76.28 106.872 76.0027 106.616 75.704C106.36 75.4053 106.232 75.192 106.232 75.064C107.128 72.2907 107.918 69.8587 108.6 67.768C109.283 65.72 109.902 63.736 110.456 61.816C110.968 59.896 111.459 57.8267 111.928 55.608C112.398 53.3467 112.867 50.7013 113.337 47.672C113.806 44.6 114.297 40.8667 114.809 36.472C114.894 36.0027 115.001 35.6613 115.129 35.448C115.257 35.2347 115.641 35.128 116.281 35.128C117.518 35.128 118.414 35.4693 118.969 36.152C119.523 36.8347 119.801 37.5813 119.801 38.392C119.801 38.8613 119.694 39.7147 119.481 40.952C119.31 42.1467 119.054 43.5973 118.713 45.304C119.481 43.9813 120.398 42.7227 121.465 41.528C122.531 40.2907 123.726 39.2667 125.049 38.456C126.371 37.6453 127.801 37.24 129.337 37.24C131.385 37.24 133.049 37.944 134.329 39.352C135.651 40.7173 136.313 42.5307 136.313 44.792C136.313 46.456 135.929 48.2267 135.161 50.104C134.435 51.9387 133.39 53.688 132.025 55.352C130.702 56.9733 129.081 58.296 127.161 59.32C125.283 60.3867 123.214 60.92 120.953 60.92C119.673 60.92 118.649 60.7493 117.881 60.408C117.113 60.1093 116.729 59.7893 116.729 59.448C116.729 59.192 116.878 59.0427 117.177 59C117.518 58.9147 117.881 58.872 118.265 58.872C120.185 58.872 121.934 58.4667 123.513 57.656C125.134 56.8027 126.542 55.7147 127.737 54.392C128.974 53.0693 129.913 51.64 130.553 50.104C131.235 48.568 131.577 47.032 131.577 45.496C131.577 44.216 131.278 43.1067 130.681 42.168C130.126 41.1867 129.23 40.696 127.993 40.696C126.883 40.696 125.774 41.0587 124.665 41.784C123.598 42.4667 122.595 43.3413 121.657 44.408C120.718 45.432 119.886 46.52 119.161 47.672C118.435 48.824 117.881 49.848 117.497 50.744C116.686 53.688 115.918 56.568 115.193 59.384C114.51 62.2427 113.849 64.8667 113.209 67.256C112.611 69.688 112.014 71.7147 111.416 73.336C110.776 74.9573 110.158 76.024 109.56 76.536C109.262 76.792 108.942 76.92 108.6 76.92ZM145.417 62.584C143.241 62.584 141.449 61.88 140.041 60.472C138.633 59.1067 137.928 57.016 137.928 54.2C137.928 52.1093 138.334 50.0613 139.145 48.056C139.998 46.0507 141.107 44.2373 142.473 42.616C143.838 40.9947 145.353 39.7147 147.017 38.776C148.681 37.8373 150.366 37.368 152.073 37.368C153.865 37.368 155.123 37.8373 155.849 38.776C156.617 39.7147 157.001 40.76 157.001 41.912C157.001 43.1493 156.702 44.3013 156.105 45.368C155.55 46.4347 154.782 46.968 153.801 46.968C152.99 46.968 152.329 46.584 151.817 45.816C152.329 45.5173 152.819 44.92 153.289 44.024C153.758 43.128 153.993 42.104 153.993 40.952C153.993 40.5253 153.907 40.2053 153.737 39.992C153.566 39.7787 153.225 39.672 152.713 39.672C151.603 39.672 150.451 40.1627 149.257 41.144C148.105 42.1253 147.017 43.4053 145.993 44.984C144.969 46.52 144.137 48.1413 143.497 49.848C142.856 51.5547 142.536 53.1547 142.536 54.648C142.536 55.8853 142.856 57.016 143.497 58.04C144.137 59.064 145.353 59.576 147.145 59.576C148.809 59.576 150.494 59.1067 152.201 58.168C153.95 57.2293 155.593 55.9067 157.128 54.2C158.665 52.4933 159.881 50.4667 160.777 48.12L161.929 49.144C160.905 51.704 159.497 54.008 157.705 56.056C155.955 58.0613 153.993 59.64 151.817 60.792C149.683 61.9867 147.55 62.584 145.417 62.584ZM164.366 60.856C162.574 60.856 161.23 60.3013 160.334 59.192C159.438 58.1253 158.989 56.8027 158.989 55.224C158.989 54.2427 159.16 53.0053 159.502 51.512C159.843 50.0187 160.312 48.4613 160.91 46.84C161.55 45.176 162.275 43.6187 163.086 42.168C163.896 40.7173 164.75 39.544 165.646 38.648C166.584 37.7093 167.502 37.24 168.398 37.24C168.867 37.24 169.272 37.3893 169.614 37.688C169.998 37.9867 170.19 38.4133 170.19 38.968C170.19 39.5227 169.848 40.3547 169.166 41.464C168.526 42.5733 167.758 43.8747 166.862 45.368C165.966 46.8187 165.176 48.3333 164.494 49.912C163.854 51.4907 163.534 53.0053 163.534 54.456C163.534 55.864 163.79 56.8027 164.302 57.272C164.814 57.7413 165.56 57.976 166.542 57.976C167.992 57.976 169.55 57.2507 171.214 55.8C172.92 54.3493 174.691 51.8107 176.526 48.184L177.358 49.08C175.95 52.8347 174.072 55.736 171.726 57.784C169.422 59.832 166.968 60.856 164.366 60.856ZM171.982 31.8C171.214 31.8 170.51 31.608 169.87 31.224C169.272 30.84 168.974 30.264 168.974 29.496C168.974 28.472 169.507 27.6187 170.574 26.936C171.683 26.2107 172.814 25.848 173.966 25.848C174.691 25.848 175.288 26.0187 175.758 26.36C176.227 26.7013 176.462 27.2773 176.462 28.088C176.462 28.984 175.992 29.8373 175.054 30.648C174.115 31.416 173.091 31.8 171.982 31.8ZM179.288 61.048C177.411 61.048 176.109 60.4293 175.384 59.192C174.659 57.9973 174.296 56.632 174.296 55.096C174.296 53.7307 174.509 52.344 174.936 50.936C175.363 49.528 175.939 48.2053 176.664 46.968C177.389 45.7307 178.2 44.728 179.096 43.96C179.992 43.192 180.909 42.808 181.848 42.808C182.104 42.808 182.403 42.872 182.744 43C183.128 43.0853 183.405 43.2133 183.576 43.384C183.107 43.896 182.595 44.6213 182.04 45.56C181.528 46.4987 181.037 47.5227 180.568 48.632C180.141 49.6987 179.779 50.7867 179.48 51.896C179.224 52.9627 179.096 53.944 179.096 54.84C179.096 55.8213 179.267 56.5893 179.608 57.144C179.949 57.6987 180.504 57.976 181.272 57.976C182.125 57.976 183.128 57.528 184.28 56.632C185.475 55.6933 186.605 54.5627 187.672 53.24C186.349 52.088 185.368 50.7653 184.728 49.272C184.131 47.736 183.832 46.008 183.832 44.088C183.832 43.0213 184.067 41.8907 184.536 40.696C185.005 39.5013 185.731 38.4987 186.712 37.688C187.693 36.8773 188.973 36.472 190.552 36.472C192.344 36.472 193.581 36.984 194.264 38.008C194.989 38.9893 195.352 40.184 195.352 41.592C195.352 43.1707 194.925 44.9627 194.072 46.968C193.261 48.9307 192.28 50.808 191.128 52.6C191.725 52.9413 192.387 53.112 193.112 53.112C193.752 53.112 194.52 52.9627 195.416 52.664C196.312 52.3653 197.165 51.8747 197.976 51.192C198.829 50.4667 199.512 49.528 200.024 48.376L201.048 49.144C200.152 51.2347 198.915 52.7707 197.336 53.752C195.8 54.6907 194.307 55.16 192.856 55.16C192.301 55.16 191.747 55.1173 191.192 55.032C190.637 54.904 190.125 54.7333 189.656 54.52C188.205 56.312 186.563 57.848 184.728 59.128C182.936 60.408 181.123 61.048 179.288 61.048ZM189.144 51.32C190.211 49.8267 191.085 48.2267 191.768 46.52C192.493 44.7707 192.856 43.1707 192.856 41.72C192.856 40.6533 192.685 39.8853 192.344 39.416C192.045 38.904 191.619 38.648 191.064 38.648C190.211 38.648 189.357 39.2453 188.504 40.44C187.651 41.592 187.224 43.064 187.224 44.856C187.224 45.88 187.373 47.032 187.672 48.312C188.013 49.5493 188.504 50.552 189.144 51.32ZM192.856 31.864C192.387 31.6507 192.045 31.3307 191.832 30.904C191.619 30.4347 191.512 30.0933 191.512 29.88C191.512 29.5387 191.725 28.9627 192.152 28.152C192.579 27.3413 193.133 26.5093 193.816 25.656C194.499 24.76 195.224 23.992 195.992 23.352C196.76 22.712 197.464 22.392 198.104 22.392C198.531 22.392 198.915 22.5627 199.256 22.904C199.597 23.2027 199.811 23.7573 199.896 24.568C198.36 25.976 197.016 27.256 195.864 28.408C194.755 29.5173 193.752 30.6693 192.856 31.864ZM219.936 60.28C218.357 60.28 217.141 59.8747 216.288 59.064C215.477 58.2533 215.072 57.2293 215.072 55.992C215.072 55.096 215.221 54.1787 215.52 53.24C215.818 52.2587 216.117 51.2773 216.416 50.296C216.714 49.272 216.864 48.2907 216.864 47.352C216.864 46.328 216.629 45.624 216.16 45.24C215.69 44.856 215.136 44.664 214.496 44.664C213.216 44.664 211.893 45.1973 210.528 46.264C209.205 47.3307 207.904 48.6747 206.624 50.296C205.344 51.8747 204.149 53.5387 203.04 55.288C201.93 57.0373 200.97 58.5947 200.16 59.96C199.392 59.96 198.666 59.832 197.983 59.576C197.301 59.32 196.725 58.872 196.255 58.232C196.298 58.0187 196.554 57.3787 197.023 56.312C197.45 55.2027 197.941 53.88 198.495 52.344C199.05 50.7653 199.541 49.144 199.968 47.48C200.437 45.816 200.672 44.28 200.672 42.872C200.97 42.5733 201.418 42.2533 202.016 41.912C202.613 41.5707 203.231 41.4 203.872 41.4C205.237 41.4 205.92 42.0187 205.92 43.256C205.92 43.8107 205.792 44.7067 205.536 45.944C205.28 47.1387 204.938 48.4613 204.512 49.912C205.621 48.3333 206.858 46.8187 208.224 45.368C209.589 43.8747 211.018 42.6587 212.512 41.72C214.005 40.7813 215.52 40.312 217.056 40.312C218.805 40.312 220.085 40.9307 220.896 42.168C221.749 43.3627 222.176 44.7067 222.176 46.2C222.176 47.48 221.962 48.696 221.536 49.848C221.109 50.9573 220.682 52.024 220.256 53.048C219.872 54.0293 219.68 55.0107 219.68 55.992C219.68 56.7173 219.829 57.2507 220.128 57.592C220.469 57.8907 220.874 58.04 221.344 58.04C222.368 58.04 223.413 57.5493 224.48 56.568C225.589 55.544 226.634 54.2853 227.616 52.792C228.64 51.256 229.536 49.72 230.304 48.184L231.264 49.016C230.368 51.1067 229.365 53.0053 228.256 54.712C227.146 56.4187 225.909 57.784 224.544 58.808C223.178 59.7893 221.642 60.28 219.936 60.28Z" fill="black"/>
<path d="M9.386 199.784C8.17 199.784 7.018 199.571 5.93 199.144C4.842 198.717 3.95667 198.067 3.274 197.192C2.61267 196.339 2.282 195.261 2.282 193.96C2.282 192.829 2.51667 191.944 2.986 191.304C3.47667 190.664 4.08467 190.216 4.81 189.96C5.53533 189.704 6.23933 189.576 6.922 189.576C6.26067 190.259 5.75933 190.984 5.418 191.752C5.098 192.52 4.938 193.256 4.938 193.96C4.938 194.707 5.11933 195.411 5.482 196.072C5.84467 196.712 6.39933 197.235 7.146 197.64C7.89267 198.045 8.82067 198.248 9.93 198.248C10.89 198.248 11.818 198.077 12.714 197.736C13.6313 197.416 14.378 196.925 14.954 196.264C15.5513 195.603 15.85 194.781 15.85 193.8C15.85 192.904 15.6047 192.136 15.114 191.496C14.6233 190.856 13.994 190.291 13.226 189.8C12.458 189.288 11.6367 188.808 10.762 188.36C9.90867 187.891 9.098 187.389 8.33 186.856C7.562 186.323 6.93267 185.715 6.442 185.032C5.95133 184.328 5.706 183.485 5.706 182.504C5.706 181.629 5.91933 180.701 6.346 179.72C6.794 178.717 7.41267 177.779 8.202 176.904C9.01267 176.029 9.98333 175.325 11.114 174.792C12.266 174.237 13.546 173.96 14.954 173.96C16.3407 173.96 17.3113 174.269 17.866 174.888C18.442 175.507 18.73 176.296 18.73 177.256C18.73 178.045 18.5913 178.888 18.314 179.784C18.058 180.68 17.7273 181.533 17.322 182.344C16.938 183.133 16.5647 183.816 16.202 184.392C15.754 184.285 15.4233 184.104 15.21 183.848C15.018 183.592 14.922 183.261 14.922 182.856C14.922 182.408 15.0073 181.907 15.178 181.352C15.37 180.776 15.5833 180.189 15.818 179.592C16.074 178.973 16.298 178.387 16.49 177.832C16.682 177.256 16.778 176.744 16.778 176.296C16.778 175.891 16.6607 175.581 16.426 175.368C16.1913 175.133 15.722 175.016 15.018 175.016C14.0153 175.016 13.0873 175.251 12.234 175.72C11.3807 176.168 10.634 176.744 9.994 177.448C9.37533 178.152 8.88467 178.888 8.522 179.656C8.18067 180.424 8.01 181.128 8.01 181.768C8.01 182.536 8.24467 183.197 8.714 183.752C9.20467 184.307 9.82333 184.808 10.57 185.256C11.338 185.704 12.1487 186.163 13.002 186.632C13.8553 187.08 14.6553 187.581 15.402 188.136C16.17 188.691 16.7887 189.352 17.258 190.12C17.7487 190.867 17.994 191.795 17.994 192.904C17.994 194.013 17.7487 194.995 17.258 195.848C16.7673 196.701 16.0953 197.416 15.242 197.992C14.41 198.568 13.482 199.005 12.458 199.304C11.434 199.624 10.41 199.784 9.386 199.784ZM21.7273 198.504C21.0446 198.504 20.4579 198.269 19.9672 197.8C19.4552 197.352 19.1992 196.669 19.1992 195.752C19.1992 194.984 19.3699 194.163 19.7112 193.288C20.0526 192.413 20.5219 191.549 21.1193 190.696C21.7166 189.843 22.3993 189.064 23.1673 188.36C23.9353 187.656 24.7459 187.091 25.5993 186.664C26.4739 186.237 27.3379 186.024 28.1913 186.024C29.0873 186.024 29.8339 186.259 30.4313 186.728C31.0499 187.176 31.3593 187.773 31.3593 188.52C31.3593 189.096 31.1779 189.501 30.8153 189.736C30.4526 189.971 30.0046 190.045 29.4713 189.96C29.5139 189.789 29.5459 189.608 29.5673 189.416C29.6099 189.203 29.6313 189 29.6313 188.808C29.6313 188.36 29.5353 187.965 29.3433 187.624C29.1513 187.283 28.7779 187.112 28.2233 187.112C27.6259 187.112 27.0179 187.315 26.3993 187.72C25.7806 188.125 25.1833 188.659 24.6073 189.32C24.0313 189.981 23.5193 190.707 23.0713 191.496C22.6233 192.285 22.2713 193.064 22.0153 193.832C21.7593 194.6 21.6313 195.283 21.6313 195.88C21.6313 196.605 21.8979 196.968 22.4313 196.968C22.9219 196.968 23.4553 196.733 24.0312 196.264C24.6286 195.795 25.2259 195.197 25.8233 194.472C26.4419 193.747 27.0286 193.011 27.5833 192.264C28.1379 191.496 28.6179 190.824 29.0233 190.248C29.1086 190.141 29.1833 190.088 29.2473 190.088C29.3539 190.109 29.5246 190.163 29.7593 190.248C29.9939 190.312 30.2073 190.408 30.3993 190.536C30.5913 190.664 30.6873 190.835 30.6873 191.048C30.6873 191.261 30.5913 191.539 30.3993 191.88C30.2073 192.2 29.9939 192.563 29.7593 192.968C29.5246 193.373 29.3113 193.779 29.1193 194.184C28.9273 194.589 28.8313 194.984 28.8313 195.368C28.8313 195.645 28.9059 195.923 29.0553 196.2C29.2259 196.456 29.4926 196.584 29.8553 196.584C30.3886 196.584 31.1139 196.2 32.0313 195.432C32.9699 194.643 33.9193 193.363 34.8793 191.592L35.3913 192.104C34.9006 193.256 34.2926 194.269 33.5673 195.144C32.8633 196.019 32.1166 196.701 31.3273 197.192C30.5379 197.704 29.7486 197.96 28.9593 197.96C28.1059 197.96 27.4766 197.693 27.0713 197.16C26.6659 196.648 26.4419 196.083 26.3993 195.464C26.3993 195.4 26.3993 195.336 26.3993 195.272C26.4206 195.187 26.4313 195.112 26.4313 195.048C25.5566 196.136 24.7566 196.979 24.0312 197.576C23.3059 198.195 22.5379 198.504 21.7273 198.504ZM29.6953 183.88C29.4606 183.773 29.2899 183.613 29.1833 183.4C29.0766 183.165 29.0233 182.995 29.0233 182.888C29.0233 182.717 29.1299 182.429 29.3433 182.024C29.5566 181.619 29.8339 181.203 30.1753 180.776C30.5166 180.328 30.8793 179.944 31.2633 179.624C31.6473 179.304 31.9993 179.144 32.3193 179.144C32.5326 179.144 32.7246 179.229 32.8953 179.4C33.0659 179.549 33.1726 179.827 33.2153 180.232C32.4473 180.936 31.7753 181.576 31.1993 182.152C30.6446 182.707 30.1433 183.283 29.6953 183.88ZM37.3883 199.336C36.2149 199.336 35.3189 198.963 34.7003 198.216C34.1029 197.469 33.8042 196.445 33.8042 195.144C33.8042 194.099 33.9856 192.861 34.3483 191.432C34.7109 189.981 35.1909 188.477 35.7883 186.92C36.3856 185.341 37.0469 183.795 37.7723 182.28C38.5189 180.765 39.2763 179.4 40.0443 178.184C40.8123 176.947 41.5269 175.965 42.1883 175.24C42.8709 174.515 43.4469 174.152 43.9163 174.152C44.3216 174.152 44.6203 174.397 44.8123 174.888C45.0043 175.357 45.1109 175.827 45.1323 176.296C45.1323 176.893 45.0043 177.619 44.7483 178.472C44.4923 179.325 44.1296 180.232 43.6603 181.192C43.1909 182.152 42.6469 183.101 42.0283 184.04C41.4096 184.979 40.7376 185.843 40.0123 186.632C39.2869 187.4 38.5296 188.008 37.7403 188.456C37.6123 188.712 37.4309 189.192 37.1963 189.896C36.9616 190.6 36.7483 191.4 36.5563 192.296C36.3643 193.192 36.2682 194.077 36.2682 194.952C36.2682 195.827 36.3963 196.552 36.6523 197.128C36.9083 197.725 37.3456 198.024 37.9643 198.024C38.5403 198.024 39.1483 197.768 39.7883 197.256C40.4496 196.765 40.9829 196.147 41.3883 195.4C40.5989 194.973 40.0016 194.376 39.5963 193.608C39.2123 192.84 39.0203 192.04 39.0203 191.208C39.0203 190.163 39.2976 189.331 39.8523 188.712C40.4069 188.072 41.0683 187.752 41.8363 187.752C42.4976 187.752 43.0416 188.008 43.4683 188.52C43.8949 189.032 44.1083 189.811 44.1083 190.856C44.1083 191.496 44.0123 192.179 43.8203 192.904C43.6496 193.608 43.4043 194.301 43.0843 194.984C43.1909 195.005 43.2869 195.027 43.3723 195.048C43.4789 195.048 43.6069 195.048 43.7563 195.048C44.5029 195.048 45.1323 194.856 45.6443 194.472C46.1776 194.067 46.6256 193.587 46.9883 193.032C47.3509 192.477 47.6389 191.976 47.8523 191.528L48.3003 192.104C47.7456 193.427 47.0736 194.397 46.2843 195.016C45.4949 195.613 44.5456 195.912 43.4363 195.912C43.3083 195.912 43.1696 195.912 43.0203 195.912C42.8923 195.891 42.7643 195.869 42.6363 195.848C42.0603 196.808 41.3349 197.629 40.4603 198.312C39.5856 198.995 38.5616 199.336 37.3883 199.336ZM41.8683 194.472C42.0603 194.024 42.2096 193.565 42.3163 193.096C42.4229 192.627 42.4763 192.125 42.4763 191.592C42.4763 190.824 42.3803 190.248 42.1883 189.864C42.0176 189.48 41.7936 189.288 41.5163 189.288C41.2176 189.288 40.9616 189.491 40.7483 189.896C40.5349 190.301 40.4283 190.792 40.4283 191.368C40.4283 191.859 40.5243 192.413 40.7163 193.032C40.9296 193.629 41.3136 194.109 41.8683 194.472ZM38.2843 186.696C38.8389 186.205 39.3723 185.629 39.8843 184.968C40.4176 184.285 40.9083 183.571 41.3563 182.824C41.8043 182.056 42.1989 181.309 42.5403 180.584C42.9029 179.859 43.1909 179.208 43.4043 178.632C43.6176 178.035 43.7349 177.565 43.7563 177.224C43.7563 177.16 43.7563 177.117 43.7563 177.096C43.7563 177.053 43.7456 177.032 43.7243 177.032C43.5323 177.075 43.2123 177.384 42.7643 177.96C42.3163 178.515 41.8149 179.261 41.2603 180.2C40.7056 181.117 40.1616 182.141 39.6283 183.272C39.0949 184.403 38.6469 185.544 38.2843 186.696ZM48.7898 198.504C48.1071 198.504 47.5204 198.269 47.0297 197.8C46.5177 197.352 46.2617 196.669 46.2617 195.752C46.2617 194.984 46.4324 194.163 46.7737 193.288C47.1151 192.413 47.5844 191.549 48.1818 190.696C48.7791 189.843 49.4618 189.064 50.2298 188.36C50.9978 187.656 51.8084 187.091 52.6618 186.664C53.5364 186.237 54.4004 186.024 55.2538 186.024C56.1498 186.024 56.8964 186.259 57.4938 186.728C58.1124 187.176 58.4218 187.773 58.4218 188.52C58.4218 189.096 58.2404 189.501 57.8778 189.736C57.5151 189.971 57.0671 190.045 56.5338 189.96C56.5764 189.789 56.6084 189.608 56.6298 189.416C56.6724 189.203 56.6938 189 56.6938 188.808C56.6938 188.36 56.5978 187.965 56.4058 187.624C56.2138 187.283 55.8404 187.112 55.2858 187.112C54.6884 187.112 54.0804 187.315 53.4618 187.72C52.8431 188.125 52.2458 188.659 51.6698 189.32C51.0938 189.981 50.5818 190.707 50.1338 191.496C49.6858 192.285 49.3338 193.064 49.0778 193.832C48.8218 194.6 48.6938 195.283 48.6938 195.88C48.6938 196.605 48.9604 196.968 49.4938 196.968C49.9844 196.968 50.5178 196.733 51.0938 196.264C51.6911 195.795 52.2884 195.197 52.8858 194.472C53.5044 193.747 54.0911 193.011 54.6458 192.264C55.2004 191.496 55.6804 190.824 56.0858 190.248C56.1711 190.141 56.2458 190.088 56.3098 190.088C56.4164 190.109 56.5871 190.163 56.8218 190.248C57.0564 190.312 57.2698 190.408 57.4618 190.536C57.6538 190.664 57.7498 190.835 57.7498 191.048C57.7498 191.261 57.6538 191.539 57.4618 191.88C57.2698 192.2 57.0564 192.563 56.8218 192.968C56.5871 193.373 56.3738 193.779 56.1818 194.184C55.9898 194.589 55.8938 194.984 55.8938 195.368C55.8938 195.645 55.9684 195.923 56.1178 196.2C56.2884 196.456 56.5551 196.584 56.9178 196.584C57.4511 196.584 58.1764 196.2 59.0938 195.432C60.0324 194.643 60.9818 193.363 61.9418 191.592L62.4538 192.104C61.9631 193.256 61.3551 194.269 60.6298 195.144C59.9258 196.019 59.1791 196.701 58.3898 197.192C57.6004 197.704 56.8111 197.96 56.0218 197.96C55.1684 197.96 54.5391 197.693 54.1338 197.16C53.7284 196.648 53.5044 196.083 53.4618 195.464C53.4618 195.4 53.4618 195.336 53.4618 195.272C53.4831 195.187 53.4938 195.112 53.4938 195.048C52.6191 196.136 51.8191 196.979 51.0938 197.576C50.3684 198.195 49.6004 198.504 48.7898 198.504ZM63.3307 197.96C62.9254 197.96 62.5201 197.864 62.1148 197.672C61.7308 197.48 61.4001 197.171 61.1227 196.744C60.8454 196.317 60.7067 195.784 60.7067 195.144C60.7067 194.44 60.8774 193.651 61.2188 192.776C61.5601 191.901 62.0188 191.027 62.5948 190.152C63.1921 189.277 63.8748 188.477 64.6428 187.752C65.4108 187.027 66.2214 186.44 67.0748 185.992C67.9281 185.544 68.7814 185.32 69.6348 185.32C70.1041 185.32 70.4668 185.405 70.7228 185.576C71.0001 185.725 71.1388 185.981 71.1388 186.344C71.1388 186.451 71.1174 186.557 71.0748 186.664C71.0534 186.771 70.9894 186.877 70.8828 186.984C70.7761 186.835 70.6161 186.739 70.4028 186.696C70.2108 186.632 69.9868 186.6 69.7308 186.6C69.0268 186.6 68.3548 186.803 67.7148 187.208C67.0748 187.592 66.4774 188.104 65.9227 188.744C65.3894 189.384 64.9201 190.077 64.5148 190.824C64.1308 191.549 63.8321 192.264 63.6188 192.968C63.4054 193.651 63.2988 194.237 63.2988 194.728C63.2988 195.155 63.3841 195.496 63.5548 195.752C63.7468 196.008 64.0134 196.136 64.3548 196.136C64.9308 196.136 65.6241 195.795 66.4348 195.112C67.2454 194.408 68.0668 193.416 68.8988 192.136C69.7521 190.835 70.5201 189.299 71.2028 187.528C71.6721 186.312 72.1628 185.075 72.6748 183.816C73.1868 182.536 73.6988 181.309 74.2108 180.136C74.7228 178.941 75.2241 177.885 75.7148 176.968C76.2054 176.051 76.6748 175.325 77.1228 174.792C77.5708 174.237 77.9868 173.96 78.3708 173.96C78.5841 173.96 78.7654 174.045 78.9148 174.216C79.0854 174.387 79.1708 174.6 79.1708 174.856C79.1708 175.197 78.9894 175.773 78.6268 176.584C78.2854 177.395 77.8374 178.365 77.2828 179.496C76.7281 180.605 76.1308 181.821 75.4908 183.144C74.8721 184.445 74.2854 185.779 73.7308 187.144C73.1974 188.509 72.7494 189.843 72.3868 191.144C72.0454 192.445 71.8748 193.661 71.8748 194.792C71.8748 195.325 71.9174 195.709 72.0028 195.944C72.0881 196.157 72.2694 196.264 72.5468 196.264C72.9948 196.264 73.5068 196.083 74.0828 195.72C74.6801 195.336 75.2774 194.792 75.8748 194.088C76.4721 193.363 77.0054 192.509 77.4748 191.528L78.0188 191.944C77.5708 193.096 76.9841 194.12 76.2588 195.016C75.5548 195.891 74.7868 196.573 73.9548 197.064C73.1441 197.576 72.3441 197.832 71.5548 197.832C70.7228 197.832 70.1361 197.555 69.7948 197C69.4748 196.467 69.3148 195.859 69.3148 195.176C69.3148 194.835 69.3468 194.451 69.4108 194.024C69.4748 193.576 69.5601 193.117 69.6667 192.648C69.0054 193.672 68.3014 194.589 67.5548 195.4C66.8081 196.189 66.0721 196.808 65.3468 197.256C64.6428 197.725 63.9708 197.96 63.3307 197.96ZM78.894 198.024C77.9553 198.024 77.3047 197.715 76.942 197.096C76.5793 196.499 76.398 195.816 76.398 195.048C76.398 194.365 76.5047 193.672 76.718 192.968C76.9313 192.264 77.2193 191.603 77.582 190.984C77.9447 190.365 78.35 189.864 78.798 189.48C79.246 189.096 79.7047 188.904 80.174 188.904C80.302 188.904 80.4513 188.936 80.622 189C80.814 189.043 80.9527 189.107 81.038 189.192C80.8033 189.448 80.5473 189.811 80.27 190.28C80.014 190.749 79.7687 191.261 79.534 191.816C79.3207 192.349 79.1393 192.893 78.99 193.448C78.862 193.981 78.798 194.472 78.798 194.92C78.798 195.411 78.8833 195.795 79.054 196.072C79.2247 196.349 79.502 196.488 79.886 196.488C80.3127 196.488 80.814 196.264 81.39 195.816C81.9873 195.347 82.5527 194.781 83.086 194.12C82.4247 193.544 81.934 192.883 81.614 192.136C81.3153 191.368 81.166 190.504 81.166 189.544C81.166 189.011 81.2833 188.445 81.518 187.848C81.7527 187.251 82.1153 186.749 82.606 186.344C83.0967 185.939 83.7367 185.736 84.526 185.736C85.422 185.736 86.0407 185.992 86.382 186.504C86.7447 186.995 86.926 187.592 86.926 188.296C86.926 189.085 86.7127 189.981 86.286 190.984C85.8807 191.965 85.39 192.904 84.814 193.8C85.1127 193.971 85.4433 194.056 85.806 194.056C86.126 194.056 86.51 193.981 86.958 193.832C87.406 193.683 87.8327 193.437 88.238 193.096C88.6647 192.733 89.006 192.264 89.262 191.688L89.774 192.072C89.326 193.117 88.7073 193.885 87.918 194.376C87.15 194.845 86.4033 195.08 85.678 195.08C85.4007 195.08 85.1233 195.059 84.846 195.016C84.5687 194.952 84.3127 194.867 84.078 194.76C83.3527 195.656 82.5313 196.424 81.614 197.064C80.718 197.704 79.8113 198.024 78.894 198.024ZM83.822 193.16C84.3553 192.413 84.7927 191.613 85.134 190.76C85.4967 189.885 85.678 189.085 85.678 188.36C85.678 187.827 85.5927 187.443 85.422 187.208C85.2727 186.952 85.0593 186.824 84.782 186.824C84.3553 186.824 83.9287 187.123 83.502 187.72C83.0753 188.296 82.862 189.032 82.862 189.928C82.862 190.44 82.9367 191.016 83.086 191.656C83.2567 192.275 83.502 192.776 83.822 193.16ZM98.7623 199.784C98.1223 199.784 97.5463 199.645 97.0343 199.368C96.5436 199.091 96.0956 198.685 95.6902 198.152C95.9889 198.173 96.2449 198.195 96.4582 198.216C96.6502 198.237 96.8742 198.248 97.1303 198.248C97.6209 198.248 98.1649 198.205 98.7623 198.12C99.3596 198.056 99.9356 197.981 100.49 197.896C100.874 197.043 101.237 195.976 101.578 194.696C101.92 193.416 102.24 192.051 102.538 190.6C102.858 189.128 103.146 187.656 103.402 186.184C103.68 184.691 103.936 183.304 104.17 182.024C104.426 180.744 104.661 179.645 104.874 178.728C103.701 179.517 102.869 180.04 102.378 180.296C101.888 180.531 101.514 180.648 101.258 180.648C100.981 180.648 100.757 180.573 100.586 180.424C100.437 180.253 100.362 179.933 100.362 179.464C100.789 179.251 101.386 178.877 102.154 178.344C102.944 177.789 103.808 177.139 104.746 176.392C105.685 175.624 106.57 174.824 107.402 173.992C107.552 174.099 107.648 174.259 107.69 174.472C107.754 174.685 107.786 174.909 107.786 175.144C107.786 175.656 107.69 176.189 107.498 176.744C107.328 177.299 107.189 177.928 107.082 178.632C106.869 180.061 106.613 181.597 106.314 183.24C106.037 184.861 105.706 186.525 105.322 188.232C104.96 189.917 104.533 191.571 104.042 193.192C103.573 194.792 103.029 196.275 102.41 197.64C102.602 197.619 102.794 197.597 102.986 197.576C103.178 197.576 103.37 197.576 103.562 197.576C104.373 197.576 105.077 197.704 105.674 197.96C106.293 198.237 106.698 198.813 106.89 199.688C106.4 199.624 105.909 199.571 105.418 199.528C104.949 199.507 104.501 199.496 104.074 199.496C103.456 199.496 102.816 199.517 102.154 199.56C101.493 199.603 100.864 199.645 100.266 199.688C99.6689 199.752 99.1676 199.784 98.7623 199.784ZM119.588 199.784C118.692 199.72 117.999 199.539 117.508 199.24C117.018 198.963 116.772 198.589 116.772 198.12C116.772 198.035 116.783 197.832 116.804 197.512C116.847 197.192 116.922 196.669 117.028 195.944C117.156 195.219 117.338 194.216 117.572 192.936C117.658 192.595 117.754 192.125 117.86 191.528C117.967 190.909 118.095 190.259 118.244 189.576C117.796 189.555 117.338 189.533 116.868 189.512C116.42 189.491 116.079 189.48 115.844 189.48C115.524 189.48 115.119 189.491 114.628 189.512C114.138 189.533 113.615 189.565 113.06 189.608C112.506 189.629 111.962 189.661 111.428 189.704C110.895 189.747 110.426 189.8 110.02 189.864C109.615 189.907 109.316 189.96 109.124 190.024C109.124 189.555 109.242 189.16 109.476 188.84C109.732 188.499 110.031 188.179 110.372 187.88C111.183 187.069 112.154 186.12 113.284 185.032C114.415 183.944 115.61 182.781 116.868 181.544C118.148 180.285 119.354 179.005 120.484 177.704C121.636 176.403 122.618 175.155 123.428 173.96C123.556 174.024 123.695 174.131 123.844 174.28C123.994 174.429 124.068 174.664 124.068 174.984C124.068 175.496 123.855 176.083 123.428 176.744C123.322 177.235 123.151 178.003 122.916 179.048C122.703 180.093 122.458 181.352 122.18 182.824C121.903 184.296 121.594 185.896 121.252 187.624C121.38 187.624 121.508 187.624 121.636 187.624C121.786 187.624 121.924 187.624 122.052 187.624C122.714 187.624 123.236 187.603 123.62 187.56C124.026 187.517 124.431 187.432 124.836 187.304C124.346 187.965 123.78 188.509 123.14 188.936C122.5 189.363 121.882 189.587 121.284 189.608C121.242 189.608 121.178 189.608 121.092 189.608C121.028 189.608 120.964 189.608 120.9 189.608C120.858 189.757 120.815 189.981 120.772 190.28C120.73 190.557 120.676 190.888 120.612 191.272C120.527 191.827 120.42 192.488 120.292 193.256C120.186 194.024 120.068 194.824 119.94 195.656C119.834 196.488 119.748 197.267 119.684 197.992C119.62 198.739 119.588 199.336 119.588 199.784ZM112.548 187.56C112.975 187.517 113.434 187.496 113.924 187.496C114.436 187.475 114.97 187.464 115.524 187.464C116.1 187.464 116.655 187.475 117.188 187.496C117.722 187.496 118.223 187.507 118.692 187.528C118.97 186.205 119.258 184.904 119.556 183.624C119.855 182.344 120.164 181.171 120.484 180.104C119.802 180.765 119.066 181.459 118.276 182.184C117.487 182.888 116.708 183.592 115.94 184.296C115.194 184.979 114.479 185.651 113.796 186.312C113.583 186.525 113.37 186.739 113.156 186.952C112.943 187.165 112.74 187.368 112.548 187.56ZM135.518 197.96C135.113 197.96 134.708 197.864 134.302 197.672C133.918 197.48 133.588 197.171 133.31 196.744C133.033 196.317 132.894 195.784 132.894 195.144C132.894 194.44 133.065 193.651 133.406 192.776C133.748 191.901 134.206 191.027 134.782 190.152C135.38 189.277 136.062 188.477 136.83 187.752C137.598 187.027 138.409 186.44 139.262 185.992C140.116 185.544 140.969 185.32 141.822 185.32C142.292 185.32 142.654 185.405 142.91 185.576C143.188 185.725 143.326 185.981 143.326 186.344C143.326 186.451 143.305 186.557 143.262 186.664C143.241 186.771 143.177 186.877 143.07 186.984C142.964 186.835 142.804 186.739 142.59 186.696C142.398 186.632 142.174 186.6 141.918 186.6C141.214 186.6 140.542 186.803 139.902 187.208C139.262 187.592 138.665 188.104 138.11 188.744C137.577 189.384 137.108 190.077 136.702 190.824C136.318 191.549 136.02 192.264 135.806 192.968C135.593 193.651 135.486 194.237 135.486 194.728C135.486 195.155 135.572 195.496 135.742 195.752C135.934 196.008 136.201 196.136 136.542 196.136C137.118 196.136 137.812 195.795 138.622 195.112C139.433 194.408 140.254 193.416 141.086 192.136C141.94 190.835 142.708 189.299 143.39 187.528C143.86 186.312 144.35 185.075 144.862 183.816C145.374 182.536 145.886 181.309 146.398 180.136C146.91 178.941 147.412 177.885 147.902 176.968C148.393 176.051 148.862 175.325 149.31 174.792C149.758 174.237 150.174 173.96 150.558 173.96C150.772 173.96 150.953 174.045 151.102 174.216C151.273 174.387 151.358 174.6 151.358 174.856C151.358 175.197 151.177 175.773 150.814 176.584C150.473 177.395 150.025 178.365 149.47 179.496C148.916 180.605 148.318 181.821 147.678 183.144C147.06 184.445 146.473 185.779 145.918 187.144C145.385 188.509 144.937 189.843 144.574 191.144C144.233 192.445 144.062 193.661 144.062 194.792C144.062 195.325 144.105 195.709 144.19 195.944C144.276 196.157 144.457 196.264 144.734 196.264C145.182 196.264 145.694 196.083 146.27 195.72C146.868 195.336 147.465 194.792 148.062 194.088C148.66 193.363 149.193 192.509 149.662 191.528L150.206 191.944C149.758 193.096 149.172 194.12 148.446 195.016C147.742 195.891 146.974 196.573 146.142 197.064C145.332 197.576 144.532 197.832 143.742 197.832C142.91 197.832 142.324 197.555 141.982 197C141.662 196.467 141.502 195.859 141.502 195.176C141.502 194.835 141.534 194.451 141.598 194.024C141.662 193.576 141.748 193.117 141.854 192.648C141.193 193.672 140.489 194.589 139.742 195.4C138.996 196.189 138.26 196.808 137.534 197.256C136.83 197.725 136.158 197.96 135.518 197.96ZM152.554 198.408C151.21 198.408 150.186 198.045 149.482 197.32C148.777 196.595 148.425 195.688 148.425 194.6C148.425 193.64 148.66 192.637 149.13 191.592C149.62 190.525 150.271 189.533 151.082 188.616C151.892 187.677 152.778 186.92 153.738 186.344C154.719 185.747 155.69 185.448 156.65 185.448C157.183 185.448 157.684 185.587 158.154 185.864C158.644 186.141 158.89 186.696 158.89 187.528C158.89 188.339 158.644 189.107 158.154 189.832C157.684 190.536 157.055 191.165 156.266 191.72C155.498 192.275 154.634 192.733 153.674 193.096C152.735 193.437 151.796 193.651 150.858 193.736C150.836 193.864 150.815 193.992 150.794 194.12C150.772 194.248 150.762 194.419 150.762 194.632C150.762 194.803 150.783 195.037 150.826 195.336C150.89 195.613 150.996 195.901 151.146 196.2C151.316 196.477 151.572 196.712 151.914 196.904C152.255 197.096 152.703 197.192 153.258 197.192C154.154 197.192 155.05 196.936 155.946 196.424C156.863 195.912 157.716 195.24 158.506 194.408C159.295 193.555 159.956 192.616 160.49 191.592L161.034 192.04C160.458 193.32 159.722 194.44 158.826 195.4C157.93 196.339 156.938 197.075 155.85 197.608C154.783 198.141 153.684 198.408 152.554 198.408ZM151.146 192.744C151.7 192.637 152.33 192.424 153.034 192.104C153.738 191.763 154.41 191.347 155.05 190.856C155.69 190.344 156.212 189.789 156.618 189.192C157.044 188.595 157.258 187.987 157.258 187.368C157.258 187.133 157.215 186.963 157.13 186.856C157.044 186.749 156.895 186.696 156.682 186.696C156.17 186.696 155.636 186.888 155.082 187.272C154.548 187.635 154.015 188.115 153.482 188.712C152.97 189.288 152.511 189.939 152.106 190.664C151.7 191.368 151.38 192.061 151.146 192.744ZM171.103 199.752C170.569 199.752 170.004 199.645 169.407 199.432C168.831 199.24 168.351 198.835 167.966 198.216C167.561 197.619 167.358 196.712 167.358 195.496C167.358 194.643 167.454 193.8 167.646 192.968C167.838 192.136 168.127 191.443 168.511 190.888C168.895 190.312 169.364 190.024 169.919 190.024C170.196 190.024 170.569 190.131 171.039 190.344C170.633 191.347 170.324 192.285 170.111 193.16C169.919 194.013 169.823 194.792 169.823 195.496C169.823 196.371 170.004 197.064 170.367 197.576C170.729 198.088 171.22 198.344 171.839 198.344C172.351 198.344 172.82 198.109 173.247 197.64C173.695 197.171 174.143 196.328 174.591 195.112C174.932 194.195 175.284 193.085 175.647 191.784C176.009 190.483 176.372 189.096 176.735 187.624C177.097 186.131 177.439 184.659 177.759 183.208C178.1 181.736 178.399 180.371 178.655 179.112C178.932 177.853 179.145 176.797 179.295 175.944C178.249 175.944 177.343 175.976 176.575 176.04C175.828 176.083 175.145 176.157 174.527 176.264C173.908 176.349 173.257 176.477 172.575 176.648C172.703 175.731 173.204 175.069 174.079 174.664C174.975 174.237 176.329 174.024 178.143 174.024C179.017 174.024 179.913 174.067 180.831 174.152C181.769 174.237 182.633 174.333 183.423 174.44C184.233 174.547 184.852 174.643 185.279 174.728C184.959 175.24 184.511 175.571 183.935 175.72C183.359 175.848 182.879 175.912 182.495 175.912C182.132 175.912 181.769 175.923 181.407 175.944C181.044 175.944 180.745 175.944 180.511 175.944C180.681 176.115 180.809 176.328 180.895 176.584C180.98 176.84 181.023 177.064 181.023 177.256C181.023 177.533 180.948 178.141 180.799 179.08C180.649 180.019 180.436 181.16 180.159 182.504C179.881 183.827 179.561 185.245 179.199 186.76C178.836 188.253 178.431 189.725 177.983 191.176C177.535 192.605 177.055 193.885 176.543 195.016C175.988 196.253 175.412 197.213 174.815 197.896C174.239 198.6 173.631 199.08 172.991 199.336C172.372 199.613 171.743 199.752 171.103 199.752ZM183.401 197.96C182.675 197.96 182.078 197.629 181.609 196.968C181.161 196.307 180.937 195.539 180.937 194.664C180.937 194.067 181.033 193.363 181.225 192.552C181.438 191.741 181.694 190.952 181.993 190.184C182.291 189.395 182.601 188.744 182.921 188.232C183.262 187.72 183.561 187.464 183.817 187.464C183.966 187.464 184.179 187.539 184.457 187.688C184.755 187.837 185.011 188.019 185.225 188.232C184.99 188.573 184.702 189.107 184.361 189.832C184.041 190.557 183.753 191.336 183.497 192.168C183.241 192.979 183.113 193.725 183.113 194.408C183.113 194.515 183.123 194.739 183.145 195.08C183.187 195.4 183.273 195.699 183.401 195.976C183.55 196.253 183.795 196.392 184.137 196.392C184.499 196.392 184.894 196.2 185.321 195.816C185.747 195.411 186.174 194.888 186.601 194.248C187.049 193.608 187.475 192.915 187.881 192.168C188.286 191.421 188.659 190.707 189.001 190.024C189.342 189.341 189.619 188.765 189.833 188.296C190.003 188.317 190.227 188.371 190.505 188.456C190.803 188.52 191.059 188.616 191.273 188.744C191.507 188.872 191.625 189.053 191.625 189.288C191.625 189.352 191.518 189.619 191.305 190.088C191.113 190.557 190.878 191.123 190.601 191.784C190.323 192.445 190.078 193.117 189.865 193.8C189.673 194.483 189.577 195.08 189.577 195.592C189.577 195.912 189.641 196.189 189.769 196.424C189.897 196.659 190.142 196.776 190.505 196.776C190.953 196.776 191.486 196.573 192.105 196.168C192.745 195.763 193.395 195.176 194.057 194.408C194.718 193.619 195.305 192.691 195.817 191.624L196.265 191.976C195.795 193.128 195.187 194.163 194.441 195.08C193.715 195.976 192.926 196.68 192.073 197.192C191.241 197.704 190.43 197.96 189.641 197.96C189.043 197.96 188.585 197.821 188.265 197.544C187.945 197.288 187.721 196.947 187.593 196.52C187.486 196.093 187.433 195.656 187.433 195.208C187.433 195.059 187.433 194.899 187.433 194.728C187.454 194.557 187.475 194.397 187.497 194.248C187.134 194.867 186.729 195.464 186.281 196.04C185.854 196.595 185.395 197.053 184.905 197.416C184.435 197.779 183.934 197.96 183.401 197.96ZM205.687 197.64C204.897 197.64 204.289 197.437 203.863 197.032C203.457 196.627 203.255 196.115 203.255 195.496C203.255 195.048 203.329 194.589 203.479 194.12C203.628 193.629 203.777 193.139 203.927 192.648C204.076 192.136 204.151 191.645 204.151 191.176C204.151 190.664 204.033 190.312 203.799 190.12C203.564 189.928 203.287 189.832 202.967 189.832C202.327 189.832 201.665 190.099 200.983 190.632C200.321 191.165 199.671 191.837 199.031 192.648C198.391 193.437 197.793 194.269 197.239 195.144C196.684 196.019 196.204 196.797 195.799 197.48C195.415 197.48 195.052 197.416 194.71 197.288C194.369 197.16 194.081 196.936 193.846 196.616C193.868 196.509 193.996 196.189 194.23 195.656C194.444 195.101 194.689 194.44 194.966 193.672C195.244 192.883 195.489 192.072 195.703 191.24C195.937 190.408 196.055 189.64 196.055 188.936C196.204 188.787 196.428 188.627 196.727 188.456C197.025 188.285 197.334 188.2 197.655 188.2C198.337 188.2 198.679 188.509 198.679 189.128C198.679 189.405 198.615 189.853 198.487 190.472C198.359 191.069 198.188 191.731 197.975 192.456C198.529 191.667 199.148 190.909 199.831 190.184C200.513 189.437 201.228 188.829 201.975 188.36C202.721 187.891 203.479 187.656 204.247 187.656C205.121 187.656 205.761 187.965 206.167 188.584C206.593 189.181 206.807 189.853 206.807 190.6C206.807 191.24 206.7 191.848 206.487 192.424C206.273 192.979 206.06 193.512 205.847 194.024C205.655 194.515 205.559 195.005 205.559 195.496C205.559 195.859 205.633 196.125 205.783 196.296C205.953 196.445 206.156 196.52 206.391 196.52C206.903 196.52 207.425 196.275 207.959 195.784C208.513 195.272 209.036 194.643 209.527 193.896C210.039 193.128 210.487 192.36 210.871 191.592L211.351 192.008C210.903 193.053 210.401 194.003 209.847 194.856C209.292 195.709 208.673 196.392 207.991 196.904C207.308 197.395 206.54 197.64 205.687 197.64ZM212.589 197.928C211.693 197.928 211.021 197.651 210.573 197.096C210.125 196.563 209.901 195.901 209.901 195.112C209.901 194.621 209.986 194.003 210.157 193.256C210.328 192.509 210.562 191.731 210.861 190.92C211.181 190.088 211.544 189.309 211.949 188.584C212.354 187.859 212.781 187.272 213.229 186.824C213.698 186.355 214.157 186.12 214.605 186.12C214.84 186.12 215.042 186.195 215.213 186.344C215.405 186.493 215.501 186.707 215.501 186.984C215.501 187.261 215.33 187.677 214.989 188.232C214.669 188.787 214.285 189.437 213.837 190.184C213.389 190.909 212.994 191.667 212.653 192.456C212.333 193.245 212.173 194.003 212.173 194.728C212.173 195.432 212.301 195.901 212.557 196.136C212.813 196.371 213.186 196.488 213.677 196.488C214.402 196.488 215.181 196.125 216.013 195.4C216.866 194.675 217.752 193.405 218.669 191.592L219.085 192.04C218.381 193.917 217.442 195.368 216.269 196.392C215.117 197.416 213.89 197.928 212.589 197.928ZM216.397 183.4C216.013 183.4 215.661 183.304 215.341 183.112C215.042 182.92 214.893 182.632 214.893 182.248C214.893 181.736 215.16 181.309 215.693 180.968C216.248 180.605 216.813 180.424 217.389 180.424C217.752 180.424 218.05 180.509 218.285 180.68C218.52 180.851 218.637 181.139 218.637 181.544C218.637 181.992 218.402 182.419 217.933 182.824C217.464 183.208 216.952 183.4 216.397 183.4ZM220.05 198.024C219.112 198.024 218.461 197.715 218.098 197.096C217.736 196.499 217.554 195.816 217.554 195.048C217.554 194.365 217.661 193.672 217.874 192.968C218.088 192.264 218.376 191.603 218.738 190.984C219.101 190.365 219.506 189.864 219.954 189.48C220.402 189.096 220.861 188.904 221.33 188.904C221.458 188.904 221.608 188.936 221.778 189C221.97 189.043 222.109 189.107 222.194 189.192C221.96 189.448 221.704 189.811 221.426 190.28C221.17 190.749 220.925 191.261 220.69 191.816C220.477 192.349 220.296 192.893 220.146 193.448C220.018 193.981 219.954 194.472 219.954 194.92C219.954 195.411 220.04 195.795 220.21 196.072C220.381 196.349 220.658 196.488 221.042 196.488C221.469 196.488 221.97 196.264 222.546 195.816C223.144 195.347 223.709 194.781 224.242 194.12C223.581 193.544 223.09 192.883 222.77 192.136C222.472 191.368 222.322 190.504 222.322 189.544C222.322 189.011 222.44 188.445 222.674 187.848C222.909 187.251 223.272 186.749 223.762 186.344C224.253 185.939 224.893 185.736 225.682 185.736C226.578 185.736 227.197 185.992 227.538 186.504C227.901 186.995 228.082 187.592 228.082 188.296C228.082 189.085 227.869 189.981 227.442 190.984C227.037 191.965 226.546 192.904 225.97 193.8C226.269 193.971 226.6 194.056 226.962 194.056C227.282 194.056 227.666 193.981 228.114 193.832C228.562 193.683 228.989 193.437 229.394 193.096C229.821 192.733 230.162 192.264 230.418 191.688L230.93 192.072C230.482 193.117 229.864 193.885 229.074 194.376C228.306 194.845 227.56 195.08 226.834 195.08C226.557 195.08 226.28 195.059 226.002 195.016C225.725 194.952 225.469 194.867 225.234 194.76C224.509 195.656 223.688 196.424 222.77 197.064C221.874 197.704 220.968 198.024 220.05 198.024ZM224.978 193.16C225.512 192.413 225.949 191.613 226.29 190.76C226.653 189.885 226.834 189.085 226.834 188.36C226.834 187.827 226.749 187.443 226.578 187.208C226.429 186.952 226.216 186.824 225.938 186.824C225.512 186.824 225.085 187.123 224.658 187.72C224.232 188.296 224.018 189.032 224.018 189.928C224.018 190.44 224.093 191.016 224.242 191.656C224.413 192.275 224.658 192.776 224.978 193.16ZM56.4498 237.784C55.8098 237.784 55.2338 237.645 54.7218 237.368C54.2311 237.091 53.7831 236.685 53.3777 236.152C53.6764 236.173 53.9324 236.195 54.1457 236.216C54.3377 236.237 54.5617 236.248 54.8178 236.248C55.3084 236.248 55.8524 236.205 56.4498 236.12C57.0471 236.056 57.6231 235.981 58.1778 235.896C58.5618 235.043 58.9244 233.976 59.2658 232.696C59.6071 231.416 59.9271 230.051 60.2258 228.6C60.5458 227.128 60.8338 225.656 61.0898 224.184C61.3671 222.691 61.6231 221.304 61.8578 220.024C62.1138 218.744 62.3484 217.645 62.5618 216.728C61.3884 217.517 60.5564 218.04 60.0658 218.296C59.5751 218.531 59.2018 218.648 58.9458 218.648C58.6684 218.648 58.4444 218.573 58.2738 218.424C58.1244 218.253 58.0498 217.933 58.0498 217.464C58.4764 217.251 59.0738 216.877 59.8418 216.344C60.6311 215.789 61.4951 215.139 62.4338 214.392C63.3724 213.624 64.2578 212.824 65.0898 211.992C65.2391 212.099 65.3351 212.259 65.3778 212.472C65.4418 212.685 65.4738 212.909 65.4738 213.144C65.4738 213.656 65.3778 214.189 65.1858 214.744C65.0151 215.299 64.8764 215.928 64.7698 216.632C64.5564 218.061 64.3004 219.597 64.0017 221.24C63.7244 222.861 63.3938 224.525 63.0098 226.232C62.6471 227.917 62.2204 229.571 61.7298 231.192C61.2604 232.792 60.7164 234.275 60.0978 235.64C60.2898 235.619 60.4818 235.597 60.6738 235.576C60.8658 235.576 61.0578 235.576 61.2498 235.576C62.0604 235.576 62.7644 235.704 63.3618 235.96C63.9804 236.237 64.3858 236.813 64.5778 237.688C64.0871 237.624 63.5964 237.571 63.1058 237.528C62.6364 237.507 62.1884 237.496 61.7618 237.496C61.1431 237.496 60.5031 237.517 59.8418 237.56C59.1804 237.603 58.5511 237.645 57.9538 237.688C57.3564 237.752 56.8551 237.784 56.4498 237.784ZM73.1218 237.784C72.1831 237.784 71.3831 237.613 70.7218 237.272C70.0818 236.952 69.7618 236.44 69.7618 235.736C69.7618 235.416 69.8684 235.107 70.0818 234.808C70.3164 234.488 70.7751 234.232 71.4578 234.04C71.4578 234.189 71.4578 234.339 71.4578 234.488C71.4578 234.637 71.4684 234.797 71.4898 234.968C71.5324 235.437 71.6711 235.853 71.9058 236.216C72.1404 236.579 72.5778 236.76 73.2178 236.76C74.2204 236.76 75.1484 236.408 76.0017 235.704C76.8551 235.021 77.6231 234.115 78.3058 232.984C78.9884 231.832 79.5751 230.563 80.0658 229.176C80.5564 227.789 80.9404 226.403 81.2178 225.016C80.5351 225.592 79.7244 226.04 78.7858 226.36C77.8684 226.68 76.9191 226.84 75.9378 226.84C74.7858 226.84 73.7191 226.605 72.7378 226.136C71.7778 225.645 71.0098 224.909 70.4338 223.928C69.8578 222.947 69.5698 221.72 69.5698 220.248C69.5698 218.648 69.9111 217.229 70.5938 215.992C71.2764 214.733 72.2364 213.752 73.4738 213.048C74.7111 212.323 76.1511 211.96 77.7938 211.96C79.5644 211.96 80.9724 212.365 82.0178 213.176C83.0844 213.965 83.8524 215.021 84.3218 216.344C84.7911 217.667 85.0258 219.117 85.0258 220.696C85.0258 222.147 84.8444 223.661 84.4818 225.24C84.1404 226.819 83.6284 228.355 82.9458 229.848C82.2844 231.32 81.4738 232.653 80.5138 233.848C79.5538 235.043 78.4551 235.992 77.2178 236.696C75.9804 237.421 74.6151 237.784 73.1218 237.784ZM77.0898 225.464C78.7111 225.464 79.8951 224.963 80.6418 223.96C81.3884 222.936 81.7618 221.603 81.7618 219.96C81.7618 219.256 81.6978 218.52 81.5698 217.752C81.4418 216.963 81.2284 216.237 80.9298 215.576C80.6311 214.893 80.2151 214.339 79.6818 213.912C79.1484 213.485 78.4764 213.272 77.6658 213.272C76.8978 213.272 76.1938 213.485 75.5538 213.912C74.9351 214.317 74.4124 214.861 73.9858 215.544C73.5591 216.227 73.2284 216.995 72.9938 217.848C72.7804 218.68 72.6738 219.523 72.6738 220.376C72.6738 221.528 72.8658 222.488 73.2498 223.256C73.6338 224.003 74.1564 224.557 74.8177 224.92C75.5004 225.283 76.2578 225.464 77.0898 225.464ZM89.183 227.576C88.8843 227.576 88.607 227.501 88.351 227.352C88.1163 227.181 87.999 226.925 87.999 226.584C87.999 226.179 88.223 225.837 88.671 225.56C89.119 225.283 89.5563 225.144 89.983 225.144C90.303 225.144 90.5483 225.219 90.719 225.368C90.8897 225.496 90.975 225.731 90.975 226.072C90.975 226.392 90.7937 226.723 90.431 227.064C90.0683 227.405 89.6523 227.576 89.183 227.576ZM87.359 235.32C87.0603 235.32 86.783 235.235 86.527 235.064C86.2923 234.915 86.175 234.669 86.175 234.328C86.175 233.923 86.3883 233.581 86.815 233.304C87.2417 233.027 87.6897 232.888 88.159 232.888C88.4577 232.888 88.6923 232.963 88.863 233.112C89.055 233.24 89.151 233.475 89.151 233.816C89.151 234.136 88.959 234.467 88.575 234.808C88.2123 235.149 87.807 235.32 87.359 235.32ZM99.1113 237.784C97.7459 237.784 96.6473 237.539 95.8153 237.048C95.0046 236.557 94.4179 235.949 94.0553 235.224C93.6926 234.499 93.5113 233.784 93.5113 233.08C93.5113 232.525 93.6073 231.981 93.7993 231.448C94.0126 230.915 94.3219 230.467 94.7273 230.104C95.1326 229.741 95.6446 229.56 96.2633 229.56C96.3699 229.56 96.4873 229.571 96.6153 229.592C96.7433 229.592 96.9353 229.613 97.1913 229.656C96.8286 229.955 96.5299 230.403 96.2953 231C96.0606 231.597 95.9433 232.173 95.9433 232.728C95.9433 233.347 96.0819 233.944 96.3593 234.52C96.6579 235.096 97.0633 235.565 97.5753 235.928C98.1086 236.291 98.7166 236.472 99.3993 236.472C100.231 236.472 101.031 236.184 101.799 235.608C102.589 235.032 103.229 234.243 103.719 233.24C104.231 232.216 104.487 231.043 104.487 229.72C104.487 228.888 104.359 228.077 104.103 227.288C103.869 226.477 103.453 225.763 102.855 225.144C102.279 224.525 101.469 224.077 100.423 223.8C101.575 223.309 102.567 222.627 103.399 221.752C104.231 220.877 104.871 219.928 105.319 218.904C105.767 217.88 105.991 216.92 105.991 216.024C105.991 214.957 105.693 214.211 105.095 213.784C104.519 213.336 103.858 213.112 103.111 213.112C102.535 213.112 101.97 213.24 101.415 213.496C100.882 213.731 100.434 214.093 100.071 214.584C99.7086 215.053 99.5273 215.629 99.5273 216.312C99.5273 216.632 99.5699 216.984 99.6553 217.368C99.7619 217.731 99.9219 218.104 100.135 218.488C100.007 218.723 99.7939 218.957 99.4953 219.192C99.2179 219.427 98.9406 219.544 98.6633 219.544C98.3859 219.544 98.1299 219.405 97.8953 219.128C97.6819 218.829 97.5219 218.477 97.4153 218.072C97.3086 217.645 97.2552 217.229 97.2552 216.824C97.2552 215.779 97.5646 214.904 98.1833 214.2C98.8019 213.475 99.5913 212.92 100.551 212.536C101.511 212.152 102.493 211.96 103.495 211.96C104.391 211.96 105.234 212.131 106.023 212.472C106.834 212.792 107.495 213.283 108.007 213.944C108.519 214.584 108.775 215.384 108.775 216.344C108.775 217.005 108.637 217.699 108.359 218.424C108.103 219.149 107.741 219.843 107.271 220.504C106.802 221.165 106.237 221.752 105.575 222.264C104.935 222.776 104.242 223.171 103.495 223.448C104.647 223.811 105.554 224.333 106.215 225.016C106.898 225.699 107.378 226.445 107.655 227.256C107.954 228.067 108.103 228.845 108.103 229.592C108.103 230.595 107.879 231.587 107.431 232.568C107.005 233.528 106.386 234.403 105.575 235.192C104.765 235.981 103.815 236.611 102.727 237.08C101.639 237.549 100.434 237.784 99.1113 237.784ZM118.447 237.784C116.975 237.784 115.759 237.389 114.799 236.6C113.839 235.832 113.125 234.797 112.655 233.496C112.186 232.195 111.951 230.765 111.951 229.208C111.951 227.8 112.122 226.307 112.463 224.728C112.826 223.128 113.338 221.581 113.999 220.088C114.682 218.573 115.503 217.208 116.463 215.992C117.445 214.755 118.543 213.773 119.759 213.048C120.975 212.323 122.309 211.96 123.759 211.96C125.103 211.96 126.277 212.301 127.279 212.984C128.303 213.645 129.093 214.616 129.647 215.896C130.202 217.155 130.479 218.691 130.479 220.504C130.479 222.125 130.287 223.757 129.903 225.4C129.519 227.043 128.965 228.6 128.239 230.072C127.514 231.544 126.65 232.867 125.647 234.04C124.666 235.192 123.567 236.099 122.351 236.76C121.135 237.443 119.834 237.784 118.447 237.784ZM118.895 236.408C119.855 236.408 120.773 236.045 121.647 235.32C122.543 234.595 123.354 233.635 124.079 232.44C124.826 231.224 125.466 229.88 125.999 228.408C126.554 226.915 126.981 225.4 127.279 223.864C127.578 222.307 127.727 220.835 127.727 219.448C127.727 218.232 127.599 217.155 127.343 216.216C127.087 215.256 126.671 214.499 126.095 213.944C125.519 213.389 124.741 213.112 123.759 213.112C122.799 213.112 121.914 213.389 121.103 213.944C120.314 214.499 119.589 215.245 118.927 216.184C118.266 217.101 117.69 218.147 117.199 219.32C116.709 220.472 116.293 221.677 115.951 222.936C115.631 224.173 115.386 225.389 115.215 226.584C115.045 227.757 114.959 228.824 114.959 229.784C114.959 231.789 115.311 233.4 116.015 234.616C116.719 235.811 117.679 236.408 118.895 236.408ZM140.628 236.216C140.18 236.216 139.85 235.853 139.636 235.128C139.423 234.424 139.316 233.613 139.316 232.696C139.316 231.693 139.487 230.499 139.828 229.112C140.17 227.725 140.618 226.264 141.172 224.728C141.727 223.171 142.346 221.656 143.028 220.184C143.732 218.691 144.447 217.347 145.172 216.152C145.919 214.936 146.623 213.965 147.284 213.24C147.946 212.515 148.522 212.152 149.012 212.152C149.439 212.152 149.759 212.397 149.972 212.888C150.186 213.357 150.292 213.837 150.292 214.328C150.292 214.925 150.154 215.651 149.876 216.504C149.62 217.336 149.258 218.232 148.788 219.192C148.319 220.152 147.764 221.101 147.124 222.04C146.506 222.979 145.834 223.832 145.108 224.6C144.383 225.368 143.626 225.987 142.836 226.456C142.58 227.139 142.367 227.821 142.196 228.504C142.026 229.165 141.898 229.805 141.812 230.424C141.748 231.043 141.716 231.629 141.716 232.184C141.716 232.333 141.716 232.483 141.716 232.632C141.738 232.76 141.759 232.877 141.78 232.984C141.93 232.6 142.122 232.099 142.356 231.48C142.612 230.84 142.911 230.168 143.252 229.464C143.615 228.76 144.031 228.088 144.5 227.448C144.991 226.808 145.546 226.296 146.164 225.912C146.783 225.507 147.466 225.304 148.212 225.304C148.895 225.304 149.428 225.464 149.812 225.784C150.218 226.083 150.495 226.467 150.644 226.936C150.815 227.405 150.9 227.885 150.9 228.376C150.9 229.037 150.783 229.677 150.548 230.296C150.335 230.893 150.111 231.469 149.876 232.024C149.663 232.557 149.556 233.069 149.556 233.56C149.556 233.944 149.642 234.221 149.812 234.392C149.983 234.563 150.196 234.648 150.452 234.648C150.922 234.648 151.466 234.413 152.084 233.944C152.724 233.475 153.343 232.856 153.94 232.088C154.559 231.299 155.092 230.435 155.54 229.496L156.02 229.976C155.551 231.043 154.986 232.013 154.324 232.888C153.663 233.763 152.938 234.467 152.148 235C151.38 235.512 150.559 235.768 149.684 235.768C148.895 235.768 148.298 235.555 147.892 235.128C147.487 234.723 147.284 234.211 147.284 233.592C147.284 233.144 147.359 232.653 147.508 232.12C147.679 231.565 147.839 231.011 147.988 230.456C148.138 229.88 148.212 229.357 148.212 228.888C148.212 228.376 148.095 228.013 147.86 227.8C147.647 227.587 147.38 227.48 147.06 227.48C146.527 227.48 146.047 227.693 145.62 228.12C145.194 228.547 144.799 229.091 144.436 229.752C144.095 230.413 143.775 231.117 143.476 231.864C143.178 232.589 142.879 233.293 142.58 233.976C142.303 234.637 142.004 235.171 141.684 235.576C141.364 236.003 141.012 236.216 140.628 236.216ZM143.444 224.664C143.999 224.173 144.543 223.587 145.076 222.904C145.61 222.2 146.1 221.464 146.548 220.696C147.018 219.928 147.423 219.181 147.764 218.456C148.106 217.731 148.372 217.08 148.564 216.504C148.778 215.928 148.895 215.48 148.916 215.16C148.916 215.117 148.906 215.085 148.884 215.064C148.884 215.043 148.874 215.032 148.852 215.032C148.724 215.032 148.447 215.309 148.02 215.864C147.594 216.397 147.092 217.123 146.516 218.04C145.962 218.957 145.407 219.992 144.852 221.144C144.298 222.296 143.828 223.469 143.444 224.664ZM160.573 235.832C159.805 235.832 159.187 235.629 158.717 235.224C158.248 234.819 158.013 234.275 158.013 233.592C158.013 232.995 158.163 232.355 158.461 231.672C158.76 230.968 159.059 230.285 159.357 229.624C159.677 228.941 159.837 228.333 159.837 227.8C159.837 227.245 159.656 226.808 159.293 226.488C158.952 226.147 158.579 225.859 158.173 225.624C157.683 226.84 157.149 228.003 156.573 229.112C156.019 230.221 155.56 231.075 155.197 231.672L154.781 230.872C155.08 230.317 155.475 229.528 155.965 228.504C156.456 227.459 156.925 226.285 157.373 224.984C157.16 224.771 157.053 224.493 157.053 224.152C157.053 223.576 157.224 223.053 157.565 222.584C157.928 222.115 158.248 221.88 158.525 221.88C158.76 221.88 158.92 222.019 159.005 222.296C159.112 222.552 159.165 222.733 159.165 222.84C159.165 222.947 159.112 223.149 159.005 223.448C158.899 223.725 158.835 223.917 158.813 224.024C158.813 224.28 158.984 224.525 159.325 224.76C159.688 224.973 160.083 225.24 160.509 225.56C160.957 225.859 161.352 226.232 161.693 226.68C162.035 227.107 162.205 227.661 162.205 228.344C162.205 228.984 162.067 229.624 161.789 230.264C161.512 230.904 161.235 231.512 160.957 232.088C160.68 232.664 160.541 233.155 160.541 233.56C160.541 233.901 160.627 234.125 160.797 234.232C160.968 234.339 161.171 234.392 161.405 234.392C161.917 234.392 162.451 234.232 163.005 233.912C163.56 233.592 164.093 233.187 164.605 232.696C165.139 232.205 165.608 231.693 166.013 231.16C166.419 230.605 166.728 230.104 166.941 229.656L167.581 230.136C167.176 231.053 166.6 231.949 165.853 232.824C165.107 233.699 164.275 234.424 163.357 235C162.44 235.555 161.512 235.832 160.573 235.832ZM169.866 236.632C168.821 236.632 167.978 236.408 167.338 235.96C166.719 235.533 166.282 234.989 166.026 234.328C165.749 233.667 165.61 232.995 165.61 232.312C165.61 231.693 165.695 231.213 165.866 230.872C166.037 230.531 166.25 230.275 166.506 230.104C166.762 229.933 166.997 229.805 167.21 229.72C167.445 229.635 167.605 229.549 167.69 229.464C168.266 228.845 168.831 228.163 169.386 227.416C169.941 226.669 170.421 225.859 170.826 224.984V224.632C170.826 223.8 170.965 223.213 171.242 222.872C171.519 222.531 171.839 222.36 172.202 222.36C172.437 222.36 172.607 222.424 172.714 222.552C172.821 222.659 172.874 222.787 172.874 222.936C172.874 223.043 172.842 223.192 172.778 223.384C172.735 223.576 172.714 223.832 172.714 224.152C172.714 224.813 172.863 225.56 173.162 226.392C173.461 227.203 173.759 228.067 174.058 228.984C174.357 229.901 174.506 230.84 174.506 231.8C174.506 232.077 174.495 232.333 174.474 232.568C174.453 232.781 174.41 232.995 174.346 233.208C175.05 233.059 175.722 232.707 176.362 232.152C177.002 231.576 177.621 230.723 178.218 229.592L178.57 229.88C178.165 231.096 177.567 232.056 176.778 232.76C176.01 233.443 175.125 233.859 174.122 234.008C173.781 234.904 173.226 235.565 172.458 235.992C171.69 236.419 170.826 236.632 169.866 236.632ZM169.738 235.32C170.101 235.32 170.474 235.213 170.858 235C171.242 234.808 171.551 234.467 171.786 233.976C170.89 233.784 170.09 233.443 169.386 232.952C168.703 232.44 168.17 231.917 167.786 231.384C167.445 231.448 167.274 231.768 167.274 232.344C167.274 233.069 167.477 233.752 167.882 234.392C168.309 235.011 168.927 235.32 169.738 235.32ZM172.01 233.144C172.053 232.973 172.074 232.781 172.074 232.568C172.095 232.355 172.106 232.163 172.106 231.992C172.085 231.011 171.957 230.051 171.722 229.112C171.487 228.152 171.263 227.192 171.05 226.232C170.623 226.957 170.143 227.704 169.61 228.472C169.098 229.219 168.618 229.827 168.17 230.296C168.49 230.915 168.981 231.491 169.642 232.024C170.325 232.557 171.114 232.931 172.01 233.144Z" fill="black"/>
</svg>
